<svg width="1360" height="768" viewBox="0 0 1360 768" fill="none" xmlns="http://www.w3.org/2000/svg">
<rect width="1360" height="768" fill="#E5E5E5"/>
<rect width="1360" height="768" fill="white"/>
<g filter="url(#filter0_d)">
<path d="M1186.5 447C1197.82 447 1207 437.822 1207 426.5C1207 415.178 1197.82 406 1186.5 406C1175.18 406 1166 415.178 1166 426.5C1166 437.822 1175.18 447 1186.5 447Z" fill="#2F2E41"/>
</g>
<g filter="url(#filter1_d)">
<path d="M1253 687L1243.51 686.999L1239 653L1253 653.001L1253 687Z" fill="#FFB8B8"/>
</g>
<g filter="url(#filter2_d)">
<path d="M1161.82 686L1153 683.719L1157.98 650L1171 653.367L1161.82 686Z" fill="#FFB8B8"/>
</g>
<g filter="url(#filter3_d)">
<path d="M1147.9 679.879L1164.46 684.344L1161.65 694.772L1134.66 687.495C1135.4 684.73 1137.22 682.374 1139.7 680.945C1142.18 679.517 1145.13 679.134 1147.9 679.879Z" fill="#2F2E41"/>
</g>
<g filter="url(#filter4_d)">
<path d="M1179.34 528.551L1153 678.29L1166.51 681L1209.05 575.302L1240.79 680.322L1257 678.29C1257 678.29 1249.57 527.873 1225.94 515L1179.34 528.551Z" fill="#2F2E41"/>
</g>
<g filter="url(#filter5_d)">
<path d="M1136.7 582.218C1137.66 581.747 1138.5 581.074 1139.17 580.247C1139.84 579.42 1140.31 578.458 1140.56 577.43C1140.81 576.402 1140.83 575.333 1140.62 574.297C1140.4 573.262 1139.96 572.285 1139.32 571.436L1154 550.207L1140.46 550L1128.6 570.191C1127.22 571.344 1126.32 572.954 1126.07 574.716C1125.82 576.478 1126.23 578.27 1127.23 579.753C1128.23 581.235 1129.75 582.305 1131.49 582.759C1133.23 583.213 1135.09 583.021 1136.7 582.218V582.218Z" fill="#FFB8B8"/>
</g>
<g filter="url(#filter6_d)">
<path d="M1232.7 556.218C1233.66 555.747 1234.5 555.074 1235.17 554.247C1235.84 553.42 1236.31 552.458 1236.56 551.43C1236.81 550.402 1236.83 549.333 1236.62 548.297C1236.4 547.262 1235.96 546.285 1235.32 545.436L1250 524.207L1236.46 524L1224.6 544.191C1223.22 545.344 1222.32 546.954 1222.07 548.716C1221.82 550.478 1222.23 552.27 1223.23 553.753C1224.23 555.235 1225.75 556.305 1227.49 556.759C1229.23 557.213 1231.09 557.021 1232.7 556.218V556.218Z" fill="#FFB8B8"/>
</g>
<g filter="url(#filter7_d)">
<path d="M1187 451C1196.94 451 1205 442.941 1205 433C1205 423.059 1196.94 415 1187 415C1177.06 415 1169 423.059 1169 433C1169 442.941 1177.06 451 1187 451Z" fill="#FFB8B8"/>
</g>
<g filter="url(#filter8_d)">
<path d="M1225.89 460.759C1225.21 458.046 1213.57 458.725 1213.57 458.725C1213.57 458.725 1200.46 455.74 1200.58 456.113C1189.54 455.271 1176.07 459.378 1174.1 460.001C1170.09 461.098 1162.42 464.454 1156.89 466.922C1156.12 467.266 1155.52 467.897 1155.21 468.678C1154.91 469.458 1154.93 470.326 1155.27 471.092L1172.14 509.247L1174.54 534L1230 517.046C1216.31 511.621 1226.58 463.472 1225.89 460.759Z" fill="#6C63FF"/>
</g>
<g filter="url(#filter9_d)">
<path d="M1220.4 460.141L1225.07 459L1250.6 507.98L1252 536L1235.85 523.699V512.764L1219 491.578L1220.4 460.141Z" fill="#6C63FF"/>
</g>
<g filter="url(#filter10_d)">
<path d="M1161.33 465L1156.2 467.312C1155.93 467.432 1155.7 467.618 1155.52 467.851C1155.34 468.085 1155.22 468.36 1155.17 468.652L1145 527.509L1135 557.242L1148.33 564L1163.67 526.833L1169 499.802L1161.33 465Z" fill="#6C63FF"/>
</g>
<g filter="url(#filter11_d)">
<path d="M1169 423.756C1172.66 422.585 1176.52 424.42 1180.09 425.818C1183.61 427.195 1187.37 428.187 1191.16 427.97C1194.94 427.753 1198.77 426.194 1201.06 423.245C1203.35 420.295 1203.76 415.875 1201.49 412.909C1200 410.956 1197.62 409.842 1195.23 409.117C1190.14 407.567 1184.44 407.513 1179.6 409.7C1174.76 411.887 1170.96 416.507 1170.56 421.695" fill="#2F2E41"/>
</g>
<g filter="url(#filter12_d)">
<path d="M1186.2 410.415C1184.99 402.164 1189.47 393.597 1195.58 390.524C1201.7 387.45 1208.87 389.263 1214.38 393.84C1219.89 398.416 1223.9 405.449 1226.89 412.925C1229.88 420.401 1231.95 428.408 1234.39 436.204C1236.55 443.129 1239.09 450.057 1243.2 455.353C1247.3 460.649 1253.28 464.095 1259 462.64C1254.3 469.018 1245.65 467.914 1240.28 462.458C1234.91 457.003 1232.12 448.476 1229.93 440.175C1227.73 431.875 1225.82 423.19 1221.57 416.312C1214.02 404.075 1199.18 400.399 1188.59 408.136" fill="#2F2E41"/>
</g>
<g filter="url(#filter13_d)">
<rect x="88" y="171" width="382" height="509" rx="20" fill="white"/>
<rect x="88.5" y="171.5" width="381" height="508" rx="19.5" stroke="#E6E6E6"/>
</g>
<g filter="url(#filter14_d)">
<path d="M120.617 236V223.396H126.506V224.196H121.487V229.25H126.146V230.041H121.487V235.209H126.796V236H120.617ZM135.559 236V230.762C135.559 228.6 134.779 227.519 133.221 227.519C132.354 227.519 131.642 227.838 131.085 228.477C130.528 229.109 130.25 229.895 130.25 230.832V236H129.441V227H130.25V228.635H130.285C130.941 227.398 131.967 226.78 133.361 226.78C134.334 226.78 135.078 227.105 135.594 227.756C136.109 228.4 136.367 229.323 136.367 230.524V236H135.559ZM142.634 235.877C142.212 236.076 141.816 236.176 141.447 236.176C140.117 236.176 139.452 235.379 139.452 233.785V227.738H137.835V227H139.452V224.662C139.581 224.615 139.716 224.568 139.856 224.521C139.997 224.48 140.132 224.437 140.261 224.39V227H142.634V227.738H140.261V233.68C140.261 234.301 140.357 234.752 140.551 235.033C140.75 235.309 141.084 235.446 141.553 235.446C141.887 235.446 142.247 235.338 142.634 235.121V235.877ZM148.663 227.844C148.394 227.65 148.077 227.554 147.714 227.554C147.005 227.554 146.41 227.92 145.93 228.652C145.449 229.385 145.209 230.425 145.209 231.772V236H144.418V227H145.209V228.995H145.244C145.449 228.31 145.774 227.776 146.22 227.396C146.665 227.015 147.181 226.824 147.767 226.824C148.101 226.824 148.399 226.877 148.663 226.982V227.844ZM150.755 224.732C150.579 224.732 150.424 224.668 150.289 224.539C150.154 224.41 150.087 224.246 150.087 224.047C150.087 223.854 150.154 223.698 150.289 223.581C150.43 223.458 150.585 223.396 150.755 223.396C150.937 223.396 151.095 223.455 151.229 223.572C151.37 223.689 151.44 223.848 151.44 224.047C151.44 224.234 151.373 224.396 151.238 224.53C151.104 224.665 150.942 224.732 150.755 224.732ZM150.359 236V227H151.168V236H150.359ZM154.244 231.535C154.244 232.771 154.528 233.738 155.097 234.436C155.671 235.133 156.456 235.481 157.452 235.481C158.46 235.481 159.444 235.109 160.405 234.365V235.227C159.474 235.889 158.434 236.22 157.285 236.22C156.125 236.22 155.188 235.804 154.473 234.972C153.758 234.14 153.4 232.965 153.4 231.447C153.4 230.135 153.772 229.03 154.517 228.134C155.267 227.231 156.239 226.78 157.435 226.78C158.554 226.78 159.412 227.173 160.01 227.958C160.607 228.743 160.906 229.815 160.906 231.175V231.535H154.244ZM160.062 230.797C160.027 229.76 159.778 228.954 159.315 228.38C158.853 227.806 158.214 227.519 157.399 227.519C156.556 227.519 155.855 227.803 155.299 228.371C154.748 228.934 154.408 229.742 154.279 230.797H160.062ZM162.673 235.604V234.629C162.978 234.893 163.347 235.101 163.78 235.253C164.214 235.405 164.589 235.481 164.905 235.481C166.317 235.481 167.023 234.904 167.023 233.75C167.023 233.352 166.868 233.012 166.558 232.73C166.247 232.449 165.743 232.159 165.046 231.86C164.185 231.485 163.578 231.099 163.227 230.7C162.881 230.296 162.708 229.807 162.708 229.232C162.708 228.5 162.986 227.908 163.543 227.457C164.105 227.006 164.797 226.78 165.617 226.78C166.391 226.78 167.053 226.938 167.604 227.255V228.169C166.936 227.735 166.244 227.519 165.529 227.519C164.938 227.519 164.46 227.674 164.097 227.984C163.733 228.289 163.552 228.688 163.552 229.18C163.552 229.607 163.666 229.956 163.895 230.226C164.123 230.489 164.627 230.794 165.406 231.14C166.344 231.562 166.988 231.954 167.34 232.317C167.691 232.675 167.867 233.152 167.867 233.75C167.867 234.465 167.598 235.057 167.059 235.525C166.525 235.988 165.787 236.22 164.844 236.22C163.977 236.22 163.253 236.015 162.673 235.604Z" fill="black"/>
</g>
<g filter="url(#filter15_d)">
<path d="M405.445 228.023H394.43V226.758H405.445V228.023Z" fill="black"/>
</g>
<g filter="url(#filter16_d)">
<path d="M435.914 227.773H441.551V228.395H435.914V234.289H435.27V228.395H429.855V227.773H435.27V221.867H435.914V227.773Z" fill="black"/>
</g>
<path d="M773.195 228.439C769.586 228.439 766.645 227.268 764.371 224.924C762.098 222.568 760.961 219.504 760.961 215.73C760.961 211.746 762.115 208.523 764.424 206.062C766.732 203.602 769.791 202.371 773.6 202.371C777.197 202.371 780.104 203.549 782.318 205.904C784.545 208.26 785.658 211.365 785.658 215.221C785.658 219.182 784.504 222.375 782.195 224.801C779.898 227.227 776.898 228.439 773.195 228.439ZM773.441 207.258C771.449 207.258 769.867 208.008 768.695 209.508C767.523 210.996 766.938 212.971 766.938 215.432C766.938 217.928 767.523 219.902 768.695 221.355C769.867 222.809 771.402 223.535 773.301 223.535C775.258 223.535 776.811 222.832 777.959 221.426C779.107 220.008 779.682 218.045 779.682 215.537C779.682 212.924 779.125 210.891 778.012 209.438C776.898 207.984 775.375 207.258 773.441 207.258ZM806.699 228H801.162V217.998C801.162 215.209 800.166 213.814 798.174 213.814C797.213 213.814 796.422 214.184 795.801 214.922C795.18 215.66 794.869 216.598 794.869 217.734V228H789.314V210H794.869V212.848H794.939C796.264 210.656 798.191 209.561 800.723 209.561C804.707 209.561 806.699 212.033 806.699 216.979V228ZM816.666 228H811.111V201.352H816.666V228ZM824.154 207.152C823.217 207.152 822.449 206.877 821.852 206.326C821.254 205.764 820.955 205.078 820.955 204.27C820.955 203.438 821.254 202.758 821.852 202.23C822.449 201.703 823.217 201.439 824.154 201.439C825.104 201.439 825.871 201.703 826.457 202.23C827.055 202.758 827.354 203.438 827.354 204.27C827.354 205.113 827.055 205.805 826.457 206.344C825.871 206.883 825.104 207.152 824.154 207.152ZM826.896 228H821.342V210H826.896V228ZM848.957 228H843.42V217.998C843.42 215.209 842.424 213.814 840.432 213.814C839.471 213.814 838.68 214.184 838.059 214.922C837.438 215.66 837.127 216.598 837.127 217.734V228H831.572V210H837.127V212.848H837.197C838.521 210.656 840.449 209.561 842.98 209.561C846.965 209.561 848.957 212.033 848.957 216.979V228ZM869.541 220.582H857.799C857.986 223.195 859.633 224.502 862.738 224.502C864.719 224.502 866.459 224.033 867.959 223.096V227.104C866.295 227.994 864.133 228.439 861.473 228.439C858.566 228.439 856.311 227.637 854.705 226.031C853.1 224.414 852.297 222.164 852.297 219.281C852.297 216.293 853.164 213.926 854.898 212.18C856.633 210.434 858.766 209.561 861.297 209.561C863.922 209.561 865.949 210.34 867.379 211.898C868.82 213.457 869.541 215.572 869.541 218.244V220.582ZM864.391 217.172C864.391 214.594 863.348 213.305 861.262 213.305C860.371 213.305 859.598 213.674 858.941 214.412C858.297 215.15 857.904 216.07 857.764 217.172H864.391ZM901.41 227.104C899.57 227.994 897.168 228.439 894.203 228.439C890.336 228.439 887.295 227.303 885.08 225.029C882.865 222.756 881.758 219.727 881.758 215.941C881.758 211.91 883 208.641 885.484 206.133C887.98 203.625 891.215 202.371 895.188 202.371C897.648 202.371 899.723 202.682 901.41 203.303V208.77C899.723 207.762 897.801 207.258 895.645 207.258C893.277 207.258 891.367 208.002 889.914 209.49C888.461 210.979 887.734 212.994 887.734 215.537C887.734 217.975 888.42 219.92 889.791 221.373C891.162 222.814 893.008 223.535 895.328 223.535C897.543 223.535 899.57 222.996 901.41 221.918V227.104ZM922.363 228H916.826V225.258H916.738C915.367 227.379 913.533 228.439 911.236 228.439C907.064 228.439 904.979 225.914 904.979 220.863V210H910.516V220.371C910.516 222.914 911.523 224.186 913.539 224.186C914.535 224.186 915.332 223.84 915.93 223.148C916.527 222.445 916.826 221.496 916.826 220.301V210H922.363V228ZM925.879 227.525V223.025C926.793 223.576 927.701 223.986 928.604 224.256C929.518 224.525 930.379 224.66 931.188 224.66C932.172 224.66 932.945 224.525 933.508 224.256C934.082 223.986 934.369 223.576 934.369 223.025C934.369 222.674 934.24 222.381 933.982 222.146C933.725 221.912 933.391 221.707 932.98 221.531C932.582 221.355 932.143 221.197 931.662 221.057C931.182 220.916 930.719 220.758 930.273 220.582C929.559 220.312 928.926 220.025 928.375 219.721C927.836 219.404 927.379 219.041 927.004 218.631C926.641 218.221 926.359 217.746 926.16 217.207C925.973 216.668 925.879 216.029 925.879 215.291C925.879 214.283 926.096 213.416 926.529 212.689C926.975 211.963 927.561 211.371 928.287 210.914C929.025 210.445 929.863 210.105 930.801 209.895C931.75 209.672 932.734 209.561 933.754 209.561C934.551 209.561 935.359 209.625 936.18 209.754C937 209.871 937.809 210.047 938.605 210.281V214.57C937.902 214.16 937.146 213.855 936.338 213.656C935.541 213.445 934.756 213.34 933.982 213.34C933.619 213.34 933.273 213.375 932.945 213.445C932.629 213.504 932.348 213.598 932.102 213.727C931.855 213.844 931.662 214.002 931.521 214.201C931.381 214.389 931.311 214.605 931.311 214.852C931.311 215.18 931.416 215.461 931.627 215.695C931.838 215.93 932.113 216.135 932.453 216.311C932.793 216.475 933.168 216.627 933.578 216.768C934 216.896 934.416 217.031 934.826 217.172C935.564 217.43 936.232 217.711 936.83 218.016C937.428 218.32 937.938 218.678 938.359 219.088C938.793 219.498 939.121 219.979 939.344 220.529C939.578 221.08 939.695 221.736 939.695 222.498C939.695 223.564 939.461 224.479 938.992 225.24C938.535 225.99 937.92 226.605 937.146 227.086C936.385 227.555 935.5 227.895 934.492 228.105C933.496 228.328 932.459 228.439 931.381 228.439C929.4 228.439 927.566 228.135 925.879 227.525ZM953.793 227.789C952.973 228.223 951.736 228.439 950.084 228.439C946.17 228.439 944.213 226.406 944.213 222.34V214.096H941.295V210H944.213V206.115L949.75 204.533V210H953.793V214.096H949.75V221.373C949.75 223.248 950.494 224.186 951.982 224.186C952.568 224.186 953.172 224.016 953.793 223.676V227.789ZM965.377 228.439C962.377 228.439 960.016 227.602 958.293 225.926C956.582 224.238 955.727 221.953 955.727 219.07C955.727 216.094 956.617 213.768 958.398 212.092C960.18 210.404 962.588 209.561 965.623 209.561C968.611 209.561 970.955 210.404 972.654 212.092C974.354 213.768 975.203 215.988 975.203 218.754C975.203 221.742 974.324 224.104 972.566 225.838C970.82 227.572 968.424 228.439 965.377 228.439ZM965.518 213.814C964.205 213.814 963.186 214.266 962.459 215.168C961.732 216.07 961.369 217.348 961.369 219C961.369 222.457 962.764 224.186 965.553 224.186C968.213 224.186 969.543 222.41 969.543 218.859C969.543 215.496 968.201 213.814 965.518 213.814ZM1007.39 228H1001.85V217.734C1001.85 215.121 1000.89 213.814 998.969 213.814C998.055 213.814 997.311 214.207 996.736 214.992C996.162 215.777 995.875 216.756 995.875 217.928V228H990.32V217.629C990.32 215.086 989.377 213.814 987.49 213.814C986.541 213.814 985.779 214.189 985.205 214.939C984.643 215.689 984.361 216.709 984.361 217.998V228H978.807V210H984.361V212.812H984.432C985.006 211.852 985.809 211.072 986.84 210.475C987.883 209.865 989.02 209.561 990.25 209.561C992.793 209.561 994.533 210.68 995.471 212.918C996.842 210.68 998.857 209.561 1001.52 209.561C1005.43 209.561 1007.39 211.975 1007.39 216.803V228ZM1014.6 207.152C1013.66 207.152 1012.89 206.877 1012.29 206.326C1011.7 205.764 1011.4 205.078 1011.4 204.27C1011.4 203.438 1011.7 202.758 1012.29 202.23C1012.89 201.703 1013.66 201.439 1014.6 201.439C1015.54 201.439 1016.31 201.703 1016.9 202.23C1017.5 202.758 1017.79 203.438 1017.79 204.27C1017.79 205.113 1017.5 205.805 1016.9 206.344C1016.31 206.883 1015.54 207.152 1014.6 207.152ZM1017.34 228H1011.78V210H1017.34V228ZM1036.27 228H1020.12V225.697L1029.15 214.096H1021.01V210H1036.2V212.742L1027.64 223.904H1036.27V228ZM1054.25 228H1049V225.416H1048.93C1047.72 227.432 1045.93 228.439 1043.56 228.439C1041.82 228.439 1040.44 227.947 1039.43 226.963C1038.44 225.967 1037.94 224.643 1037.94 222.99C1037.94 219.498 1040.01 217.482 1044.14 216.943L1049.03 216.293C1049.03 214.324 1047.96 213.34 1045.83 213.34C1043.69 213.34 1041.65 213.979 1039.71 215.256V211.072C1040.49 210.674 1041.54 210.322 1042.88 210.018C1044.23 209.713 1045.45 209.561 1046.55 209.561C1051.69 209.561 1054.25 212.121 1054.25 217.242V228ZM1049.03 220.688V219.475L1045.76 219.896C1043.96 220.131 1043.05 220.945 1043.05 222.34C1043.05 222.973 1043.27 223.494 1043.71 223.904C1044.15 224.303 1044.75 224.502 1045.5 224.502C1046.54 224.502 1047.39 224.145 1048.05 223.43C1048.7 222.703 1049.03 221.789 1049.03 220.688ZM1064.27 225.908H1064.2V228H1058.65V201.352H1064.2V212.707H1064.27C1065.64 210.609 1067.59 209.561 1070.12 209.561C1072.45 209.561 1074.23 210.357 1075.49 211.951C1076.74 213.545 1077.37 215.725 1077.37 218.49C1077.37 221.49 1076.63 223.898 1075.17 225.715C1073.71 227.531 1071.75 228.439 1069.3 228.439C1067.08 228.439 1065.41 227.596 1064.27 225.908ZM1064.11 218.314V220.16C1064.11 221.32 1064.45 222.281 1065.12 223.043C1065.78 223.805 1066.64 224.186 1067.68 224.186C1068.95 224.186 1069.93 223.699 1070.62 222.727C1071.32 221.742 1071.67 220.354 1071.67 218.561C1071.67 217.072 1071.35 215.912 1070.71 215.08C1070.07 214.236 1069.16 213.814 1067.98 213.814C1066.87 213.814 1065.94 214.23 1065.2 215.062C1064.48 215.895 1064.11 216.979 1064.11 218.314ZM1086.53 228H1080.97V201.352H1086.53V228ZM1107.37 220.582H1095.63C1095.82 223.195 1097.46 224.502 1100.57 224.502C1102.55 224.502 1104.29 224.033 1105.79 223.096V227.104C1104.13 227.994 1101.96 228.439 1099.3 228.439C1096.4 228.439 1094.14 227.637 1092.54 226.031C1090.93 224.414 1090.13 222.164 1090.13 219.281C1090.13 216.293 1091 213.926 1092.73 212.18C1094.46 210.434 1096.6 209.561 1099.13 209.561C1101.75 209.561 1103.78 210.34 1105.21 211.898C1106.65 213.457 1107.37 215.572 1107.37 218.244V220.582ZM1102.22 217.172C1102.22 214.594 1101.18 213.305 1099.09 213.305C1098.2 213.305 1097.43 213.674 1096.77 214.412C1096.13 215.15 1095.74 216.07 1095.6 217.172H1102.22ZM842.436 276H835.914L831.994 269.514C831.701 269.021 831.42 268.582 831.15 268.195C830.881 267.809 830.605 267.48 830.324 267.211C830.055 266.93 829.768 266.719 829.463 266.578C829.17 266.426 828.848 266.35 828.496 266.35H826.967V276H821.289V250.793H830.289C836.406 250.793 839.465 253.078 839.465 257.648C839.465 258.527 839.33 259.342 839.061 260.092C838.791 260.83 838.41 261.498 837.918 262.096C837.426 262.693 836.828 263.209 836.125 263.643C835.434 264.076 834.66 264.416 833.805 264.662V264.732C834.18 264.85 834.543 265.043 834.895 265.312C835.246 265.57 835.586 265.875 835.914 266.227C836.242 266.578 836.553 266.959 836.846 267.369C837.15 267.768 837.426 268.16 837.672 268.547L842.436 276ZM826.967 255.047V262.061H829.428C830.646 262.061 831.625 261.709 832.363 261.006C833.113 260.291 833.488 259.406 833.488 258.352C833.488 256.148 832.17 255.047 829.533 255.047H826.967ZM859.24 276H853.984V273.416H853.914C852.707 275.432 850.92 276.439 848.553 276.439C846.807 276.439 845.43 275.947 844.422 274.963C843.426 273.967 842.928 272.643 842.928 270.99C842.928 267.498 844.996 265.482 849.133 264.943L854.02 264.293C854.02 262.324 852.953 261.34 850.82 261.34C848.676 261.34 846.637 261.979 844.703 263.256V259.072C845.477 258.674 846.531 258.322 847.867 258.018C849.215 257.713 850.439 257.561 851.541 257.561C856.674 257.561 859.24 260.121 859.24 265.242V276ZM854.02 268.688V267.475L850.75 267.896C848.945 268.131 848.043 268.945 848.043 270.34C848.043 270.973 848.26 271.494 848.693 271.904C849.139 272.303 849.736 272.502 850.486 272.502C851.529 272.502 852.379 272.145 853.035 271.43C853.691 270.703 854.02 269.789 854.02 268.688ZM875.377 253.605C874.662 253.324 873.977 253.184 873.32 253.184C871.539 253.184 870.648 254.15 870.648 256.084V258H874.762V262.096H870.648V276H865.111V262.096H862.088V258H865.111V255.768C865.111 253.717 865.779 252.064 867.115 250.811C868.451 249.557 870.268 248.93 872.564 248.93C873.689 248.93 874.627 249.047 875.377 249.281V253.605ZM889.193 253.605C888.479 253.324 887.793 253.184 887.137 253.184C885.355 253.184 884.465 254.15 884.465 256.084V258H888.578V262.096H884.465V276H878.928V262.096H875.904V258H878.928V255.768C878.928 253.717 879.596 252.064 880.932 250.811C882.268 249.557 884.084 248.93 886.381 248.93C887.506 248.93 888.443 249.047 889.193 249.281V253.605ZM896.998 276H891.443V249.352H896.998V276ZM917.846 268.582H906.104C906.291 271.195 907.938 272.502 911.043 272.502C913.023 272.502 914.764 272.033 916.264 271.096V275.104C914.6 275.994 912.438 276.439 909.777 276.439C906.871 276.439 904.615 275.637 903.01 274.031C901.404 272.414 900.602 270.164 900.602 267.281C900.602 264.293 901.469 261.926 903.203 260.18C904.938 258.434 907.07 257.561 909.602 257.561C912.227 257.561 914.254 258.34 915.684 259.898C917.125 261.457 917.846 263.572 917.846 266.244V268.582ZM912.695 265.172C912.695 262.594 911.652 261.305 909.566 261.305C908.676 261.305 907.902 261.674 907.246 262.412C906.602 263.15 906.209 264.07 906.068 265.172H912.695ZM930.484 275.033V269.408C931.504 270.264 932.611 270.908 933.807 271.342C935.002 271.764 936.209 271.975 937.428 271.975C938.143 271.975 938.764 271.91 939.291 271.781C939.83 271.652 940.275 271.477 940.627 271.254C940.99 271.02 941.26 270.75 941.436 270.445C941.611 270.129 941.699 269.789 941.699 269.426C941.699 268.934 941.559 268.494 941.277 268.107C940.996 267.721 940.609 267.363 940.117 267.035C939.637 266.707 939.062 266.391 938.395 266.086C937.727 265.781 937.006 265.471 936.232 265.154C934.264 264.334 932.793 263.332 931.82 262.148C930.859 260.965 930.379 259.535 930.379 257.859C930.379 256.547 930.643 255.422 931.17 254.484C931.697 253.535 932.412 252.756 933.314 252.146C934.229 251.537 935.283 251.092 936.479 250.811C937.674 250.518 938.939 250.371 940.275 250.371C941.588 250.371 942.748 250.453 943.756 250.617C944.775 250.77 945.713 251.01 946.568 251.338V256.594C946.146 256.301 945.684 256.043 945.18 255.82C944.688 255.598 944.178 255.416 943.65 255.275C943.123 255.123 942.596 255.012 942.068 254.941C941.553 254.871 941.061 254.836 940.592 254.836C939.947 254.836 939.361 254.9 938.834 255.029C938.307 255.146 937.861 255.316 937.498 255.539C937.135 255.762 936.854 256.031 936.654 256.348C936.455 256.652 936.355 256.998 936.355 257.385C936.355 257.807 936.467 258.188 936.689 258.527C936.912 258.855 937.229 259.172 937.639 259.477C938.049 259.77 938.547 260.062 939.133 260.355C939.719 260.637 940.381 260.93 941.119 261.234C942.127 261.656 943.029 262.107 943.826 262.588C944.635 263.057 945.326 263.59 945.9 264.188C946.475 264.785 946.914 265.471 947.219 266.244C947.523 267.006 947.676 267.896 947.676 268.916C947.676 270.322 947.406 271.506 946.867 272.467C946.34 273.416 945.619 274.189 944.705 274.787C943.791 275.373 942.725 275.795 941.506 276.053C940.299 276.311 939.021 276.439 937.674 276.439C936.291 276.439 934.973 276.322 933.719 276.088C932.477 275.854 931.398 275.502 930.484 275.033ZM967.504 258L960.191 277.441C958.434 282.117 955.785 284.455 952.246 284.455C950.898 284.455 949.791 284.303 948.924 283.998V279.568C949.662 280.002 950.465 280.219 951.332 280.219C952.762 280.219 953.758 279.545 954.32 278.197L955.27 275.965L947.957 258H954.109L957.467 268.951C957.678 269.631 957.842 270.434 957.959 271.359H958.029C958.135 270.68 958.328 269.889 958.609 268.986L962.002 258H967.504ZM968.559 275.525V271.025C969.473 271.576 970.381 271.986 971.283 272.256C972.197 272.525 973.059 272.66 973.867 272.66C974.852 272.66 975.625 272.525 976.188 272.256C976.762 271.986 977.049 271.576 977.049 271.025C977.049 270.674 976.92 270.381 976.662 270.146C976.404 269.912 976.07 269.707 975.66 269.531C975.262 269.355 974.822 269.197 974.342 269.057C973.861 268.916 973.398 268.758 972.953 268.582C972.238 268.312 971.605 268.025 971.055 267.721C970.516 267.404 970.059 267.041 969.684 266.631C969.32 266.221 969.039 265.746 968.84 265.207C968.652 264.668 968.559 264.029 968.559 263.291C968.559 262.283 968.775 261.416 969.209 260.689C969.654 259.963 970.24 259.371 970.967 258.914C971.705 258.445 972.543 258.105 973.48 257.895C974.43 257.672 975.414 257.561 976.434 257.561C977.23 257.561 978.039 257.625 978.859 257.754C979.68 257.871 980.488 258.047 981.285 258.281V262.57C980.582 262.16 979.826 261.855 979.018 261.656C978.221 261.445 977.436 261.34 976.662 261.34C976.299 261.34 975.953 261.375 975.625 261.445C975.309 261.504 975.027 261.598 974.781 261.727C974.535 261.844 974.342 262.002 974.201 262.201C974.061 262.389 973.99 262.605 973.99 262.852C973.99 263.18 974.096 263.461 974.307 263.695C974.518 263.93 974.793 264.135 975.133 264.311C975.473 264.475 975.848 264.627 976.258 264.768C976.68 264.896 977.096 265.031 977.506 265.172C978.244 265.43 978.912 265.711 979.51 266.016C980.107 266.32 980.617 266.678 981.039 267.088C981.473 267.498 981.801 267.979 982.023 268.529C982.258 269.08 982.375 269.736 982.375 270.498C982.375 271.564 982.141 272.479 981.672 273.24C981.215 273.99 980.6 274.605 979.826 275.086C979.064 275.555 978.18 275.895 977.172 276.105C976.176 276.328 975.139 276.439 974.061 276.439C972.08 276.439 970.246 276.135 968.559 275.525ZM996.473 275.789C995.652 276.223 994.416 276.439 992.764 276.439C988.85 276.439 986.893 274.406 986.893 270.34V262.096H983.975V258H986.893V254.115L992.43 252.533V258H996.473V262.096H992.43V269.373C992.43 271.248 993.174 272.186 994.662 272.186C995.248 272.186 995.852 272.016 996.473 271.676V275.789ZM1015.65 268.582H1003.91C1004.1 271.195 1005.74 272.502 1008.85 272.502C1010.83 272.502 1012.57 272.033 1014.07 271.096V275.104C1012.4 275.994 1010.24 276.439 1007.58 276.439C1004.68 276.439 1002.42 275.637 1000.81 274.031C999.209 272.414 998.406 270.164 998.406 267.281C998.406 264.293 999.273 261.926 1001.01 260.18C1002.74 258.434 1004.88 257.561 1007.41 257.561C1010.03 257.561 1012.06 258.34 1013.49 259.898C1014.93 261.457 1015.65 263.572 1015.65 266.244V268.582ZM1010.5 265.172C1010.5 262.594 1009.46 261.305 1007.37 261.305C1006.48 261.305 1005.71 261.674 1005.05 262.412C1004.41 263.15 1004.01 264.07 1003.87 265.172H1010.5ZM1047.54 276H1042V265.734C1042 263.121 1041.04 261.814 1039.12 261.814C1038.2 261.814 1037.46 262.207 1036.88 262.992C1036.31 263.777 1036.02 264.756 1036.02 265.928V276H1030.47V265.629C1030.47 263.086 1029.53 261.814 1027.64 261.814C1026.69 261.814 1025.93 262.189 1025.35 262.939C1024.79 263.689 1024.51 264.709 1024.51 265.998V276H1018.96V258H1024.51V260.812H1024.58C1025.15 259.852 1025.96 259.072 1026.99 258.475C1028.03 257.865 1029.17 257.561 1030.4 257.561C1032.94 257.561 1034.68 258.68 1035.62 260.918C1036.99 258.68 1039.01 257.561 1041.67 257.561C1045.58 257.561 1047.54 259.975 1047.54 264.803V276Z" fill="#2F2E41"/>
<g filter="url(#filter17_d)">
<path d="M1085.82 608H769.18C769.026 608.001 768.872 607.962 768.729 607.887C768.586 607.812 768.456 607.702 768.346 607.562C768.236 607.423 768.149 607.257 768.09 607.075C768.031 606.893 768 606.697 768 606.5C768 606.303 768.031 606.107 768.09 605.925C768.149 605.743 768.236 605.577 768.346 605.438C768.456 605.298 768.586 605.188 768.729 605.113C768.872 605.038 769.026 604.999 769.18 605H1085.82C1085.97 604.999 1086.13 605.038 1086.27 605.113C1086.41 605.188 1086.54 605.298 1086.65 605.438C1086.76 605.577 1086.85 605.743 1086.91 605.925C1086.97 606.107 1087 606.303 1087 606.5C1087 606.697 1086.97 606.893 1086.91 607.075C1086.85 607.257 1086.76 607.423 1086.65 607.562C1086.54 607.702 1086.41 607.812 1086.27 607.887C1086.13 607.962 1085.97 608.001 1085.82 608V608Z" fill="#E6E6E6"/>
</g>
<g filter="url(#filter18_d)">
<path d="M845 663C845 646.984 857.984 634 874 634H982C998.016 634 1011 646.984 1011 663V663C1011 679.016 998.016 692 982 692H874C857.984 692 845 679.016 845 663V663Z" fill="#6C63FF"/>
</g>
<path d="M905.441 673V660.396H909.906C914.383 660.396 916.621 662.444 916.621 666.54C916.621 668.503 916.009 670.07 914.784 671.242C913.565 672.414 911.939 673 909.906 673H905.441ZM908.28 662.708V670.697H909.687C910.917 670.697 911.881 670.328 912.578 669.59C913.281 668.852 913.633 667.847 913.633 666.575C913.633 665.374 913.284 664.431 912.587 663.745C911.896 663.054 910.923 662.708 909.669 662.708H908.28ZM929.286 673H926.025L924.065 669.757C923.919 669.511 923.778 669.291 923.644 669.098C923.509 668.904 923.371 668.74 923.23 668.605C923.096 668.465 922.952 668.359 922.8 668.289C922.653 668.213 922.492 668.175 922.316 668.175H921.552V673H918.713V660.396H923.213C926.271 660.396 927.801 661.539 927.801 663.824C927.801 664.264 927.733 664.671 927.599 665.046C927.464 665.415 927.273 665.749 927.027 666.048C926.781 666.347 926.482 666.604 926.131 666.821C925.785 667.038 925.398 667.208 924.971 667.331V667.366C925.158 667.425 925.34 667.521 925.516 667.656C925.691 667.785 925.861 667.938 926.025 668.113C926.189 668.289 926.345 668.479 926.491 668.685C926.644 668.884 926.781 669.08 926.904 669.273L929.286 673ZM921.552 662.523V666.03H922.782C923.392 666.03 923.881 665.854 924.25 665.503C924.625 665.146 924.812 664.703 924.812 664.176C924.812 663.074 924.153 662.523 922.835 662.523H921.552ZM941.556 673H938.462L937.565 670.196H933.083L932.195 673H929.119L933.707 660.396H937.073L941.556 673ZM936.915 668.017L935.562 663.78C935.462 663.464 935.392 663.086 935.351 662.646H935.28C935.251 663.016 935.178 663.382 935.061 663.745L933.689 668.017H936.915ZM959.037 660.396L955.706 673H952.56L950.468 664.914C950.356 664.492 950.289 664.021 950.266 663.499H950.23C950.178 664.073 950.102 664.545 950.002 664.914L947.857 673H944.579L941.266 660.396H944.368L946.144 668.79C946.22 669.147 946.275 669.628 946.311 670.231H946.363C946.387 669.78 946.472 669.288 946.618 668.755L948.903 660.396H951.944L954.01 668.86C954.086 669.171 954.153 669.622 954.212 670.214H954.247C954.271 669.751 954.332 669.282 954.432 668.808L956.172 660.396H959.037Z" fill="#E5E5E5"/>
<rect x="118.5" y="253.5" width="321" height="28" rx="7.5" stroke="#CCCCCC"/>
<path d="M131.711 273V260.396H132.581V273H131.711ZM141.766 273V267.762C141.766 265.6 140.986 264.519 139.428 264.519C138.561 264.519 137.849 264.838 137.292 265.477C136.735 266.109 136.457 266.895 136.457 267.832V273H135.648V264H136.457V265.635H136.492C137.148 264.398 138.174 263.78 139.568 263.78C140.541 263.78 141.285 264.105 141.801 264.756C142.316 265.4 142.574 266.323 142.574 267.524V273H141.766ZM146.125 271.4H146.09V277.14H145.281V264H146.09V265.854H146.125C146.447 265.192 146.907 264.683 147.505 264.325C148.108 263.962 148.771 263.78 149.491 263.78C150.634 263.78 151.524 264.176 152.163 264.967C152.808 265.752 153.13 266.821 153.13 268.175C153.13 269.681 152.761 270.899 152.022 271.831C151.29 272.757 150.32 273.22 149.113 273.22C147.766 273.22 146.77 272.613 146.125 271.4ZM146.09 268.052V269.186C146.09 270.088 146.374 270.864 146.942 271.515C147.511 272.159 148.258 272.481 149.184 272.481C150.104 272.481 150.851 272.089 151.425 271.304C151.999 270.513 152.286 269.476 152.286 268.192C152.286 267.067 152.022 266.174 151.495 265.512C150.968 264.85 150.265 264.519 149.386 264.519C148.337 264.519 147.525 264.87 146.951 265.573C146.377 266.276 146.09 267.103 146.09 268.052ZM161.312 273V271.365H161.277C160.65 272.602 159.684 273.22 158.377 273.22C156.25 273.22 155.187 271.881 155.187 269.203V264H156.004V269.001C156.004 270.22 156.203 271.104 156.602 271.655C157.006 272.206 157.639 272.481 158.5 272.481C159.338 272.481 160.015 272.174 160.53 271.559C161.052 270.943 161.312 270.123 161.312 269.098V264H162.121V273H161.312ZM168.563 272.877C168.142 273.076 167.746 273.176 167.377 273.176C166.047 273.176 165.382 272.379 165.382 270.785V264.738H163.765V264H165.382V261.662C165.511 261.615 165.646 261.568 165.786 261.521C165.927 261.48 166.062 261.437 166.19 261.39V264H168.563V264.738H166.19V270.68C166.19 271.301 166.287 271.752 166.48 272.033C166.68 272.309 167.014 272.446 167.482 272.446C167.816 272.446 168.177 272.338 168.563 272.121V272.877Z" fill="#8E8B8B"/>
<g filter="url(#filter19_d)">
<path d="M1236.82 685H1254V696H1226C1226 694.555 1226.28 693.125 1226.82 691.79C1227.37 690.456 1228.16 689.243 1229.17 688.222C1230.17 687.2 1231.37 686.39 1232.68 685.837C1233.99 685.285 1235.4 685 1236.82 685V685Z" fill="#2F2E41"/>
</g>
<defs>
<filter id="filter0_d" x="1162" y="406" width="49" height="49" filterUnits="userSpaceOnUse" color-interpolation-filters="sRGB">
<feFlood flood-opacity="0" result="BackgroundImageFix"/>
<feColorMatrix in="SourceAlpha" type="matrix" values="0 0 0 0 0 0 0 0 0 0 0 0 0 0 0 0 0 0 127 0"/>
<feOffset dy="4"/>
<feGaussianBlur stdDeviation="2"/>
<feColorMatrix type="matrix" values="0 0 0 0 0 0 0 0 0 0 0 0 0 0 0 0 0 0 0.25 0"/>
<feBlend mode="normal" in2="BackgroundImageFix" result="effect1_dropShadow"/>
<feBlend mode="normal" in="SourceGraphic" in2="effect1_dropShadow" result="shape"/>
</filter>
<filter id="filter1_d" x="1235" y="653" width="22" height="42" filterUnits="userSpaceOnUse" color-interpolation-filters="sRGB">
<feFlood flood-opacity="0" result="BackgroundImageFix"/>
<feColorMatrix in="SourceAlpha" type="matrix" values="0 0 0 0 0 0 0 0 0 0 0 0 0 0 0 0 0 0 127 0"/>
<feOffset dy="4"/>
<feGaussianBlur stdDeviation="2"/>
<feColorMatrix type="matrix" values="0 0 0 0 0 0 0 0 0 0 0 0 0 0 0 0 0 0 0.25 0"/>
<feBlend mode="normal" in2="BackgroundImageFix" result="effect1_dropShadow"/>
<feBlend mode="normal" in="SourceGraphic" in2="effect1_dropShadow" result="shape"/>
</filter>
<filter id="filter2_d" x="1149" y="650" width="26" height="44" filterUnits="userSpaceOnUse" color-interpolation-filters="sRGB">
<feFlood flood-opacity="0" result="BackgroundImageFix"/>
<feColorMatrix in="SourceAlpha" type="matrix" values="0 0 0 0 0 0 0 0 0 0 0 0 0 0 0 0 0 0 127 0"/>
<feOffset dy="4"/>
<feGaussianBlur stdDeviation="2"/>
<feColorMatrix type="matrix" values="0 0 0 0 0 0 0 0 0 0 0 0 0 0 0 0 0 0 0.25 0"/>
<feBlend mode="normal" in2="BackgroundImageFix" result="effect1_dropShadow"/>
<feBlend mode="normal" in="SourceGraphic" in2="effect1_dropShadow" result="shape"/>
</filter>
<filter id="filter3_d" x="1130.66" y="679.507" width="37.7988" height="23.2647" filterUnits="userSpaceOnUse" color-interpolation-filters="sRGB">
<feFlood flood-opacity="0" result="BackgroundImageFix"/>
<feColorMatrix in="SourceAlpha" type="matrix" values="0 0 0 0 0 0 0 0 0 0 0 0 0 0 0 0 0 0 127 0"/>
<feOffset dy="4"/>
<feGaussianBlur stdDeviation="2"/>
<feColorMatrix type="matrix" values="0 0 0 0 0 0 0 0 0 0 0 0 0 0 0 0 0 0 0.25 0"/>
<feBlend mode="normal" in2="BackgroundImageFix" result="effect1_dropShadow"/>
<feBlend mode="normal" in="SourceGraphic" in2="effect1_dropShadow" result="shape"/>
</filter>
<filter id="filter4_d" x="1149" y="515" width="112" height="174" filterUnits="userSpaceOnUse" color-interpolation-filters="sRGB">
<feFlood flood-opacity="0" result="BackgroundImageFix"/>
<feColorMatrix in="SourceAlpha" type="matrix" values="0 0 0 0 0 0 0 0 0 0 0 0 0 0 0 0 0 0 127 0"/>
<feOffset dy="4"/>
<feGaussianBlur stdDeviation="2"/>
<feColorMatrix type="matrix" values="0 0 0 0 0 0 0 0 0 0 0 0 0 0 0 0 0 0 0.25 0"/>
<feBlend mode="normal" in2="BackgroundImageFix" result="effect1_dropShadow"/>
<feBlend mode="normal" in="SourceGraphic" in2="effect1_dropShadow" result="shape"/>
</filter>
<filter id="filter5_d" x="1122" y="550" width="36" height="41" filterUnits="userSpaceOnUse" color-interpolation-filters="sRGB">
<feFlood flood-opacity="0" result="BackgroundImageFix"/>
<feColorMatrix in="SourceAlpha" type="matrix" values="0 0 0 0 0 0 0 0 0 0 0 0 0 0 0 0 0 0 127 0"/>
<feOffset dy="4"/>
<feGaussianBlur stdDeviation="2"/>
<feColorMatrix type="matrix" values="0 0 0 0 0 0 0 0 0 0 0 0 0 0 0 0 0 0 0.25 0"/>
<feBlend mode="normal" in2="BackgroundImageFix" result="effect1_dropShadow"/>
<feBlend mode="normal" in="SourceGraphic" in2="effect1_dropShadow" result="shape"/>
</filter>
<filter id="filter6_d" x="1218" y="524" width="36" height="41" filterUnits="userSpaceOnUse" color-interpolation-filters="sRGB">
<feFlood flood-opacity="0" result="BackgroundImageFix"/>
<feColorMatrix in="SourceAlpha" type="matrix" values="0 0 0 0 0 0 0 0 0 0 0 0 0 0 0 0 0 0 127 0"/>
<feOffset dy="4"/>
<feGaussianBlur stdDeviation="2"/>
<feColorMatrix type="matrix" values="0 0 0 0 0 0 0 0 0 0 0 0 0 0 0 0 0 0 0.25 0"/>
<feBlend mode="normal" in2="BackgroundImageFix" result="effect1_dropShadow"/>
<feBlend mode="normal" in="SourceGraphic" in2="effect1_dropShadow" result="shape"/>
</filter>
<filter id="filter7_d" x="1165" y="415" width="44" height="44" filterUnits="userSpaceOnUse" color-interpolation-filters="sRGB">
<feFlood flood-opacity="0" result="BackgroundImageFix"/>
<feColorMatrix in="SourceAlpha" type="matrix" values="0 0 0 0 0 0 0 0 0 0 0 0 0 0 0 0 0 0 127 0"/>
<feOffset dy="4"/>
<feGaussianBlur stdDeviation="2"/>
<feColorMatrix type="matrix" values="0 0 0 0 0 0 0 0 0 0 0 0 0 0 0 0 0 0 0.25 0"/>
<feBlend mode="normal" in2="BackgroundImageFix" result="effect1_dropShadow"/>
<feBlend mode="normal" in="SourceGraphic" in2="effect1_dropShadow" result="shape"/>
</filter>
<filter id="filter8_d" x="1151" y="456" width="83" height="86" filterUnits="userSpaceOnUse" color-interpolation-filters="sRGB">
<feFlood flood-opacity="0" result="BackgroundImageFix"/>
<feColorMatrix in="SourceAlpha" type="matrix" values="0 0 0 0 0 0 0 0 0 0 0 0 0 0 0 0 0 0 127 0"/>
<feOffset dy="4"/>
<feGaussianBlur stdDeviation="2"/>
<feColorMatrix type="matrix" values="0 0 0 0 0 0 0 0 0 0 0 0 0 0 0 0 0 0 0.25 0"/>
<feBlend mode="normal" in2="BackgroundImageFix" result="effect1_dropShadow"/>
<feBlend mode="normal" in="SourceGraphic" in2="effect1_dropShadow" result="shape"/>
</filter>
<filter id="filter9_d" x="1215" y="459" width="41" height="85" filterUnits="userSpaceOnUse" color-interpolation-filters="sRGB">
<feFlood flood-opacity="0" result="BackgroundImageFix"/>
<feColorMatrix in="SourceAlpha" type="matrix" values="0 0 0 0 0 0 0 0 0 0 0 0 0 0 0 0 0 0 127 0"/>
<feOffset dy="4"/>
<feGaussianBlur stdDeviation="2"/>
<feColorMatrix type="matrix" values="0 0 0 0 0 0 0 0 0 0 0 0 0 0 0 0 0 0 0.25 0"/>
<feBlend mode="normal" in2="BackgroundImageFix" result="effect1_dropShadow"/>
<feBlend mode="normal" in="SourceGraphic" in2="effect1_dropShadow" result="shape"/>
</filter>
<filter id="filter10_d" x="1131" y="465" width="42" height="107" filterUnits="userSpaceOnUse" color-interpolation-filters="sRGB">
<feFlood flood-opacity="0" result="BackgroundImageFix"/>
<feColorMatrix in="SourceAlpha" type="matrix" values="0 0 0 0 0 0 0 0 0 0 0 0 0 0 0 0 0 0 127 0"/>
<feOffset dy="4"/>
<feGaussianBlur stdDeviation="2"/>
<feColorMatrix type="matrix" values="0 0 0 0 0 0 0 0 0 0 0 0 0 0 0 0 0 0 0.25 0"/>
<feBlend mode="normal" in2="BackgroundImageFix" result="effect1_dropShadow"/>
<feBlend mode="normal" in="SourceGraphic" in2="effect1_dropShadow" result="shape"/>
</filter>
<filter id="filter11_d" x="1165" y="408" width="42" height="28" filterUnits="userSpaceOnUse" color-interpolation-filters="sRGB">
<feFlood flood-opacity="0" result="BackgroundImageFix"/>
<feColorMatrix in="SourceAlpha" type="matrix" values="0 0 0 0 0 0 0 0 0 0 0 0 0 0 0 0 0 0 127 0"/>
<feOffset dy="4"/>
<feGaussianBlur stdDeviation="2"/>
<feColorMatrix type="matrix" values="0 0 0 0 0 0 0 0 0 0 0 0 0 0 0 0 0 0 0.25 0"/>
<feBlend mode="normal" in2="BackgroundImageFix" result="effect1_dropShadow"/>
<feBlend mode="normal" in="SourceGraphic" in2="effect1_dropShadow" result="shape"/>
</filter>
<filter id="filter12_d" x="1182" y="389" width="81" height="86" filterUnits="userSpaceOnUse" color-interpolation-filters="sRGB">
<feFlood flood-opacity="0" result="BackgroundImageFix"/>
<feColorMatrix in="SourceAlpha" type="matrix" values="0 0 0 0 0 0 0 0 0 0 0 0 0 0 0 0 0 0 127 0"/>
<feOffset dy="4"/>
<feGaussianBlur stdDeviation="2"/>
<feColorMatrix type="matrix" values="0 0 0 0 0 0 0 0 0 0 0 0 0 0 0 0 0 0 0.25 0"/>
<feBlend mode="normal" in2="BackgroundImageFix" result="effect1_dropShadow"/>
<feBlend mode="normal" in="SourceGraphic" in2="effect1_dropShadow" result="shape"/>
</filter>
<filter id="filter13_d" x="84" y="171" width="390" height="517" filterUnits="userSpaceOnUse" color-interpolation-filters="sRGB">
<feFlood flood-opacity="0" result="BackgroundImageFix"/>
<feColorMatrix in="SourceAlpha" type="matrix" values="0 0 0 0 0 0 0 0 0 0 0 0 0 0 0 0 0 0 127 0"/>
<feOffset dy="4"/>
<feGaussianBlur stdDeviation="2"/>
<feColorMatrix type="matrix" values="0 0 0 0 0 0 0 0 0 0 0 0 0 0 0 0 0 0 0.25 0"/>
<feBlend mode="normal" in2="BackgroundImageFix" result="effect1_dropShadow"/>
<feBlend mode="normal" in="SourceGraphic" in2="effect1_dropShadow" result="shape"/>
</filter>
<filter id="filter14_d" x="119.617" y="223.396" width="49.25" height="15.8232" filterUnits="userSpaceOnUse" color-interpolation-filters="sRGB">
<feFlood flood-opacity="0" result="BackgroundImageFix"/>
<feColorMatrix in="SourceAlpha" type="matrix" values="0 0 0 0 0 0 0 0 0 0 0 0 0 0 0 0 0 0 127 0"/>
<feOffset dy="2"/>
<feGaussianBlur stdDeviation="0.5"/>
<feColorMatrix type="matrix" values="0 0 0 0 0 0 0 0 0 0 0 0 0 0 0 0 0 0 0.5 0"/>
<feBlend mode="normal" in2="BackgroundImageFix" result="effect1_dropShadow"/>
<feBlend mode="normal" in="SourceGraphic" in2="effect1_dropShadow" result="shape"/>
</filter>
<filter id="filter15_d" x="392.43" y="226.758" width="15.0156" height="5.26562" filterUnits="userSpaceOnUse" color-interpolation-filters="sRGB">
<feFlood flood-opacity="0" result="BackgroundImageFix"/>
<feColorMatrix in="SourceAlpha" type="matrix" values="0 0 0 0 0 0 0 0 0 0 0 0 0 0 0 0 0 0 127 0"/>
<feOffset dy="2"/>
<feGaussianBlur stdDeviation="1"/>
<feColorMatrix type="matrix" values="0 0 0 0 0 0 0 0 0 0 0 0 0 0 0 0 0 0 0.25 0"/>
<feBlend mode="normal" in2="BackgroundImageFix" result="effect1_dropShadow"/>
<feBlend mode="normal" in="SourceGraphic" in2="effect1_dropShadow" result="shape"/>
</filter>
<filter id="filter16_d" x="427.855" y="221.867" width="15.6953" height="16.4219" filterUnits="userSpaceOnUse" color-interpolation-filters="sRGB">
<feFlood flood-opacity="0" result="BackgroundImageFix"/>
<feColorMatrix in="SourceAlpha" type="matrix" values="0 0 0 0 0 0 0 0 0 0 0 0 0 0 0 0 0 0 127 0"/>
<feOffset dy="2"/>
<feGaussianBlur stdDeviation="1"/>
<feColorMatrix type="matrix" values="0 0 0 0 0 0 0 0 0 0 0 0 0 0 0 0 0 0 0.5 0"/>
<feBlend mode="normal" in2="BackgroundImageFix" result="effect1_dropShadow"/>
<feBlend mode="normal" in="SourceGraphic" in2="effect1_dropShadow" result="shape"/>
</filter>
<filter id="filter17_d" x="767" y="605" width="321" height="6" filterUnits="userSpaceOnUse" color-interpolation-filters="sRGB">
<feFlood flood-opacity="0" result="BackgroundImageFix"/>
<feColorMatrix in="SourceAlpha" type="matrix" values="0 0 0 0 0 0 0 0 0 0 0 0 0 0 0 0 0 0 127 0"/>
<feOffset dy="2"/>
<feGaussianBlur stdDeviation="0.5"/>
<feColorMatrix type="matrix" values="0 0 0 0 0 0 0 0 0 0 0 0 0 0 0 0 0 0 0.25 0"/>
<feBlend mode="normal" in2="BackgroundImageFix" result="effect1_dropShadow"/>
<feBlend mode="normal" in="SourceGraphic" in2="effect1_dropShadow" result="shape"/>
</filter>
<filter id="filter18_d" x="841" y="634" width="174" height="66" filterUnits="userSpaceOnUse" color-interpolation-filters="sRGB">
<feFlood flood-opacity="0" result="BackgroundImageFix"/>
<feColorMatrix in="SourceAlpha" type="matrix" values="0 0 0 0 0 0 0 0 0 0 0 0 0 0 0 0 0 0 127 0"/>
<feOffset dy="4"/>
<feGaussianBlur stdDeviation="2"/>
<feColorMatrix type="matrix" values="0 0 0 0 0 0 0 0 0 0 0 0 0 0 0 0 0 0 0.25 0"/>
<feBlend mode="normal" in2="BackgroundImageFix" result="effect1_dropShadow"/>
<feBlend mode="normal" in="SourceGraphic" in2="effect1_dropShadow" result="shape"/>
</filter>
<filter id="filter19_d" x="1222" y="685" width="36" height="19" filterUnits="userSpaceOnUse" color-interpolation-filters="sRGB">
<feFlood flood-opacity="0" result="BackgroundImageFix"/>
<feColorMatrix in="SourceAlpha" type="matrix" values="0 0 0 0 0 0 0 0 0 0 0 0 0 0 0 0 0 0 127 0"/>
<feOffset dy="4"/>
<feGaussianBlur stdDeviation="2"/>
<feColorMatrix type="matrix" values="0 0 0 0 0 0 0 0 0 0 0 0 0 0 0 0 0 0 0.25 0"/>
<feBlend mode="normal" in2="BackgroundImageFix" result="effect1_dropShadow"/>
<feBlend mode="normal" in="SourceGraphic" in2="effect1_dropShadow" result="shape"/>
</filter>
</defs>
</svg>
