<svg width="177" height="183" viewBox="0 0 177 183" fill="none" xmlns="http://www.w3.org/2000/svg">
<path d="M89.6813 175.259H89.6355C87.9263 175.259 86.1962 175.209 84.4937 175.108L84.5191 174.678C86.2135 174.778 87.935 174.829 89.6358 174.829H89.6816L89.6813 175.259ZM94.8705 175.102L94.8447 174.672C96.5572 174.57 98.2877 174.414 99.9881 174.209L100.04 174.636C98.3308 174.843 96.5916 174.999 94.8721 175.103L94.8705 175.102ZM79.3236 174.647C77.6121 174.443 75.8849 174.183 74.1905 173.876L74.2674 173.452C75.9531 173.757 77.6716 174.016 79.3747 174.221L79.3236 174.647ZM105.172 173.859L105.094 173.435C106.781 173.127 108.48 172.763 110.144 172.354L110.247 172.772C108.576 173.183 106.867 173.549 105.172 173.859L105.172 173.859ZM69.1136 172.793C67.4399 172.383 65.7569 171.916 64.1116 171.406L64.2396 170.994C65.8776 171.503 67.5513 171.967 69.2166 172.375L69.1136 172.793ZM115.248 171.378L115.12 170.966C116.754 170.457 118.395 169.89 120 169.28L120.153 169.683C118.541 170.296 116.891 170.867 115.248 171.379V171.378ZM59.1938 169.713C57.582 169.103 55.9658 168.433 54.39 167.724L54.5669 167.331C56.1346 168.037 57.7424 168.702 59.3469 169.31L59.1938 169.713ZM124.941 167.697L124.764 167.303C126.324 166.602 127.884 165.839 129.399 165.041L129.6 165.423C128.077 166.225 126.509 166.99 124.941 167.698V167.697ZM49.7173 165.447C48.189 164.645 46.6667 163.785 45.1923 162.892L45.4152 162.525C46.8823 163.413 48.3969 164.268 49.9175 165.067L49.7173 165.447ZM134.115 162.872L133.892 162.504C135.358 161.616 136.816 160.672 138.224 159.698L138.469 160.052C137.052 161.03 135.586 161.979 134.115 162.872ZM40.8327 160.071C39.4134 159.09 38.0061 158.053 36.65 156.991L36.9174 156.651C38.2665 157.709 39.6668 158.74 41.0791 159.716L40.8327 160.071ZM142.646 156.973L142.379 156.634C143.731 155.573 145.065 154.461 146.344 153.325L146.63 153.647C145.345 154.787 144.004 155.905 142.645 156.972L142.646 156.973ZM32.6612 153.664C31.3706 152.521 30.0983 151.324 28.8799 150.106L29.1844 149.801C30.3968 151.013 31.6627 152.204 32.9466 153.342L32.6612 153.664ZM150.41 150.087L150.106 149.783C151.32 148.569 152.513 147.303 153.649 146.022L153.971 146.308C152.83 147.596 151.631 148.867 150.411 150.087H150.41ZM25.3199 146.327C24.1754 145.037 23.0563 143.697 21.9936 142.344L22.3322 142.076C23.3899 143.423 24.505 144.756 25.6415 146.04L25.3199 146.327ZM157.297 142.324L156.957 142.057C158.019 140.704 159.05 139.304 160.024 137.897L160.378 138.142C159.4 139.558 158.363 140.965 157.297 142.324ZM18.9116 138.171C17.9306 136.754 16.9806 135.29 16.0891 133.82L16.4568 133.596C17.3443 135.059 18.2892 136.516 19.2646 137.926L18.9116 138.171ZM163.204 133.784L162.836 133.561C163.726 132.092 164.582 130.578 165.381 129.06L165.762 129.26C164.958 130.785 164.099 132.307 163.204 133.784ZM13.5343 129.307C12.732 127.783 11.9662 126.216 11.2582 124.649L11.6506 124.471C12.3553 126.031 13.1171 127.59 13.9153 129.105L13.5343 129.307ZM168.04 124.588L167.647 124.412C168.354 122.84 169.021 121.234 169.628 119.631L170.031 119.785C169.42 121.394 168.75 123.01 168.04 124.587L168.04 124.588ZM9.26897 119.863C8.65591 118.252 8.08465 116.602 7.57121 114.958L7.98236 114.829C8.49346 116.465 9.06172 118.107 9.67143 119.709L9.26897 119.863ZM171.727 114.869L171.316 114.741C171.825 113.103 172.291 111.429 172.7 109.765L173.118 109.868C172.707 111.54 172.239 113.223 171.727 114.869V114.869ZM6.1753 109.958C5.76281 108.286 5.39645 106.579 5.08591 104.882L5.50977 104.805C5.81897 106.493 6.18366 108.192 6.59381 109.854L6.1753 109.958ZM174.202 104.791L173.778 104.714C174.084 103.028 174.343 101.31 174.547 99.6073L174.974 99.6588C174.77 101.37 174.51 103.098 174.202 104.791V104.791ZM4.30606 99.7511C4.09915 98.0423 3.94137 96.3034 3.83808 94.5819L4.26795 94.5558C4.37158 96.2683 4.52869 97.9988 4.73594 99.6989L4.30606 99.7511ZM175.44 94.489L175.01 94.4636C175.11 92.7541 175.163 91.0176 175.163 89.3011V89.1189H175.594V89.3011C175.594 91.0259 175.542 92.7712 175.44 94.489ZM4.10784 89.3927H3.67697V89.3014C3.67697 87.6064 3.72677 85.8919 3.82538 84.2051L4.25525 84.2306C4.15731 85.9089 4.10751 87.615 4.10751 89.3018L4.10784 89.3927ZM174.998 83.9565C174.893 82.242 174.734 80.5115 174.526 78.8137L174.954 78.7616C175.162 80.468 175.322 82.2069 175.428 83.93L174.998 83.9565ZM4.71153 79.0861L4.28366 79.0353C4.48757 77.3239 4.74596 75.5967 5.05249 73.9019L5.47667 73.9785C5.17148 75.6649 4.9141 77.3834 4.71153 79.0861ZM173.744 73.7087C173.433 72.0183 173.066 70.3195 172.655 68.6612L173.073 68.5576C173.486 70.2256 173.855 71.9337 174.168 73.6315L173.744 73.7087ZM6.55002 68.9256L6.13151 68.8234C6.54032 67.152 7.0063 65.4673 7.51673 63.8207L7.92821 63.948C7.42045 65.5859 6.95682 67.261 6.55035 68.9256H6.55002ZM171.261 63.6873C170.748 62.0514 170.178 60.4098 169.567 58.8069L169.968 58.6535C170.583 60.263 171.156 61.913 171.673 63.5573L171.261 63.6873ZM9.61026 59.0546L9.20713 58.9022C9.81717 57.2897 10.4854 55.6731 11.1934 54.0971L11.5865 54.2739C10.8818 55.842 10.217 57.4505 9.61026 59.0546ZM167.583 54.0486C166.877 52.4896 166.112 50.9312 165.313 49.4166L165.694 49.216C166.498 50.738 167.265 52.3044 167.975 53.8714L167.583 54.0486ZM13.8485 49.6238L13.4667 49.4233C14.2663 47.8987 15.125 46.3757 16.0192 44.8969L16.3869 45.1199C15.4988 46.5917 14.6444 48.1069 13.8485 49.6238ZM162.766 44.929C161.877 43.4676 160.93 42.0115 159.952 40.6019L160.306 40.3562C161.289 41.7732 162.24 43.2363 163.134 44.7054L162.766 44.929ZM19.1934 40.779L18.8388 40.534C19.8169 39.1171 20.8524 37.7094 21.9164 36.35L22.2557 36.6154C21.1991 37.9685 20.1675 39.3691 19.1934 40.779ZM156.883 36.4502C155.821 35.1025 154.706 33.7701 153.568 32.4898L153.89 32.2037C155.034 33.4896 156.154 34.8287 157.221 36.1838L156.883 36.4502ZM25.5633 32.6456L25.2407 32.3598C26.3826 31.0695 27.5806 29.7966 28.7963 28.5772L29.1015 28.8814C27.8898 30.0951 26.6995 31.3613 25.5633 32.6456ZM150.023 28.7346C148.806 27.5219 147.539 26.3319 146.257 25.1984L146.542 24.8758C147.831 26.015 149.104 27.2107 150.327 28.4298L150.023 28.7346ZM32.8581 25.3364L32.5719 25.0142C33.8579 23.8716 35.1976 22.7518 36.5537 21.6855L36.8212 22.0241C35.4724 23.0851 34.138 24.1996 32.8581 25.3364ZM142.285 21.8934C140.935 20.8371 139.534 19.8076 138.12 18.8332L138.365 18.4785C139.785 19.4576 141.194 20.4925 142.55 21.5538L142.285 21.8934ZM40.9728 18.9559L40.7274 18.6015C42.1434 17.6205 43.6068 16.6698 45.0783 15.7766L45.3019 16.1443C43.8382 17.0331 42.3817 17.9791 40.9728 18.9555V18.9559ZM133.777 16.0293C132.306 15.1415 130.791 14.2881 129.273 13.4922L129.473 13.1105C130.999 13.9104 132.523 14.7681 134.001 15.6603L133.777 16.0293ZM49.7908 13.6012L49.5903 13.2201C51.1129 12.4179 52.6796 11.649 54.247 10.9414L54.4245 11.3338C52.8648 12.0391 51.3061 12.8019 49.7915 13.6012H49.7908ZM124.622 11.2332C123.054 10.5312 121.447 9.8657 119.84 9.26101L119.993 8.85788C121.606 9.46692 123.223 10.1341 124.799 10.8414L124.622 11.2332ZM59.1855 9.35327L59.0321 8.95214C60.6439 8.33809 62.2942 7.76615 63.9371 7.25204L64.0658 7.66319C62.4299 8.17296 60.788 8.74222 59.1845 9.35327H59.1855ZM114.945 7.58163C113.307 7.07488 111.632 6.61225 109.967 6.20611L110.069 5.7876C111.741 6.19541 113.426 6.66071 115.073 7.17014L114.945 7.58163ZM69.0391 6.27129L68.9355 5.85312C70.6088 5.43929 72.3163 5.07193 74.01 4.76106L74.0879 5.18491C72.4028 5.49411 70.7041 5.85981 69.0404 6.27163L69.0391 6.27129ZM104.915 5.13477C103.231 4.83092 101.512 4.5742 99.807 4.3723L99.8574 3.94443C101.572 4.14734 103.299 4.40506 104.991 4.71058L104.915 5.13477ZM79.1932 4.40506L79.1411 3.97719C80.8488 3.76928 82.5877 3.6095 84.3099 3.5052L84.3359 3.93507C82.6225 4.0397 80.893 4.19747 79.1932 4.40305V4.40506ZM94.6615 3.9197C92.9975 3.82343 91.3068 3.77463 89.6355 3.77463H89.4984V3.34375H89.6355C91.3148 3.34375 93.0146 3.39289 94.6863 3.48983L94.6615 3.9197Z" fill="#3F3B56"/>
<path d="M176.364 143.822H125.283V182.132H176.364V143.822Z" fill="#6C63FF"/>
<path d="M169.979 154.038H131.668V156.592H169.979V154.038Z" fill="white"/>
<path d="M169.979 161.7H131.668V164.254H169.979V161.7Z" fill="white"/>
<path d="M169.979 169.362H131.668V171.916H169.979V169.362Z" fill="white"/>
<path d="M38.3538 0H2.67416V26.7597H38.3538V0Z" fill="#E6E6E6"/>
<path d="M33.8936 7.13599H7.13399V8.91999H33.8936V7.13599Z" fill="white"/>
<path d="M33.8936 12.4877H7.13399V14.2717H33.8936V12.4877Z" fill="white"/>
<path d="M33.8936 17.8397H7.13399V19.6237H33.8936V17.8397Z" fill="white"/>
<path d="M53.5176 13.8257H17.838V40.5854H53.5176V13.8257Z" fill="#6C63FF"/>
<path d="M49.0574 20.9618H22.2978V22.7458H49.0574V20.9618Z" fill="white"/>
<path d="M49.0574 26.3138H22.2978V28.0978H49.0574V26.3138Z" fill="white"/>
<path d="M49.0574 31.6655H22.2978V33.4495H49.0574V31.6655Z" fill="white"/>
<path d="M138.388 125.686H41.1152V52.8148H138.388V125.686ZM42.118 53.8176V124.683H137.385V53.8176H42.118Z" fill="#E6E6E6"/>
<path d="M89.721 107.909C99.9502 107.909 108.243 99.6162 108.243 89.387C108.243 79.1578 99.9502 70.8654 89.721 70.8654C79.4919 70.8654 71.1995 79.1578 71.1995 89.387C71.1995 99.6162 79.4919 107.909 89.721 107.909Z" fill="#6C63FF"/>
<path d="M97.4123 87.8316H91.1149V81.5343C91.1149 81.1413 90.9588 80.7643 90.6809 80.4864C90.403 80.2086 90.0261 80.0524 89.6331 80.0524C89.2401 80.0524 88.8632 80.2086 88.5853 80.4864C88.3074 80.7643 88.1513 81.1413 88.1513 81.5343V87.8316H81.854C81.461 87.8316 81.0841 87.9877 80.8062 88.2656C80.5283 88.5435 80.3722 88.9204 80.3722 89.3134C80.3722 89.7064 80.5283 90.0833 80.8062 90.3612C81.0841 90.6391 81.461 90.7952 81.854 90.7952H88.1513V97.0925C88.1513 97.4855 88.3074 97.8625 88.5853 98.1404C88.8632 98.4182 89.2401 98.5744 89.6331 98.5744C90.0261 98.5744 90.403 98.4182 90.6809 98.1404C90.9588 97.8625 91.1149 97.4855 91.1149 97.0925V90.7952H97.4123C97.8053 90.7952 98.1822 90.6391 98.4601 90.3612C98.738 90.0833 98.8941 89.7064 98.8941 89.3134C98.8941 88.9204 98.738 88.5435 98.4601 88.2656C98.1822 87.9877 97.8053 87.8316 97.4123 87.8316Z" fill="white"/>
<path d="M35.6796 137.385H0V164.145H35.6796V137.385Z" fill="#E6E6E6"/>
<path d="M31.2195 144.521H4.45983V146.305H31.2195V144.521Z" fill="white"/>
<path d="M31.2195 149.873H4.45983V151.657H31.2195V149.873Z" fill="white"/>
<path d="M31.2195 155.225H4.45983V157.009H31.2195V155.225Z" fill="white"/>
</svg>
