<svg width="141" height="315" viewBox="0 0 141 315" fill="none" xmlns="http://www.w3.org/2000/svg">
<g filter="url(#filter0_d)">
<path d="M64.5 58C75.8218 58 85 48.8218 85 37.5C85 26.1782 75.8218 17 64.5 17C53.1782 17 44 26.1782 44 37.5C44 48.8218 53.1782 58 64.5 58Z" fill="#2F2E41"/>
</g>
<g filter="url(#filter1_d)">
<path d="M130.998 298L121.513 297.999L117 264L131 264.001L130.998 298Z" fill="#FFB8B8"/>
</g>
<g filter="url(#filter2_d)">
<path d="M114.818 296H132V307H104C104 305.555 104.28 304.125 104.823 302.79C105.367 301.456 106.164 300.243 107.169 299.222C108.173 298.2 109.366 297.39 110.678 296.837C111.991 296.285 113.398 296 114.818 296Z" fill="#2F2E41"/>
</g>
<g filter="url(#filter3_d)">
<path d="M39.8237 297L31 294.719L35.9773 261L49 264.367L39.8237 297Z" fill="#FFB8B8"/>
</g>
<g filter="url(#filter4_d)">
<path d="M25.8972 290.879L42.4578 295.344L39.6464 305.772L12.659 298.495C13.4046 295.73 15.2182 293.374 17.7009 291.945C20.1835 290.517 23.1318 290.134 25.8972 290.879Z" fill="#2F2E41"/>
</g>
<g filter="url(#filter5_d)">
<path d="M57.3376 139.551L31 289.29L44.5065 292L87.052 186.302L118.792 291.322L135 289.29C135 289.29 127.571 138.873 103.935 126L57.3376 139.551Z" fill="#2F2E41"/>
</g>
<g filter="url(#filter6_d)">
<path d="M14.6985 193.218C15.6581 192.747 16.5013 192.074 17.1688 191.247C17.8362 190.42 18.3117 189.458 18.5617 188.43C18.8116 187.402 18.83 186.333 18.6156 185.297C18.4011 184.262 17.9589 183.285 17.3203 182.436L32 161.207L18.4621 161L6.59748 181.191C5.22245 182.344 4.32392 183.954 4.07213 185.716C3.82033 187.478 4.23277 189.27 5.23132 190.753C6.22987 192.235 7.74513 193.305 9.48998 193.759C11.2348 194.213 13.0881 194.021 14.6985 193.218Z" fill="#FFB8B8"/>
</g>
<g filter="url(#filter7_d)">
<path d="M110.698 167.218C111.658 166.747 112.501 166.074 113.169 165.247C113.836 164.42 114.312 163.458 114.562 162.43C114.812 161.402 114.83 160.333 114.616 159.297C114.401 158.262 113.959 157.285 113.32 156.436L128 135.207L114.462 135L102.598 155.191C101.222 156.344 100.324 157.954 100.072 159.716C99.8203 161.478 100.233 163.27 101.231 164.753C102.23 166.235 103.745 167.305 105.49 167.759C107.235 168.213 109.088 168.021 110.698 167.218V167.218Z" fill="#FFB8B8"/>
</g>
<g filter="url(#filter8_d)">
<path d="M65 62C74.9411 62 83 53.9411 83 44C83 34.0589 74.9411 26 65 26C55.0589 26 47 34.0589 47 44C47 53.9411 55.0589 62 65 62Z" fill="#FFB8B8"/>
</g>
<g filter="url(#filter9_d)">
<path d="M103.892 71.7591C103.207 69.0465 91.5676 69.7246 91.5676 69.7246C91.5676 69.7246 78.4609 66.7401 78.5849 67.1133C67.54 66.2712 54.067 70.3783 52.1047 71.0011C48.09 72.0982 40.4195 75.454 34.8877 77.9222C34.1178 78.2659 33.5159 78.8967 33.2131 79.6776C32.9103 80.4584 32.9309 81.3261 33.2705 82.0919L50.1441 120.247L52.5405 145L108 128.046C94.3063 122.621 104.577 74.4717 103.892 71.7591Z" fill="#6C63FF"/>
</g>
<g filter="url(#filter10_d)">
<path d="M98.4042 71.1411L103.072 70L128.596 118.98L130 147L113.851 134.699V123.764L97 102.578L98.4042 71.1411Z" fill="#6C63FF"/>
</g>
<g filter="url(#filter11_d)">
<path d="M39.3333 76L34.2015 78.312C33.9342 78.4323 33.7003 78.6175 33.5204 78.8511C33.3404 79.0847 33.2199 79.3596 33.1695 79.6516L23 138.509L13 168.242L26.3334 175L41.6667 137.833L47 110.802L39.3333 76Z" fill="#6C63FF"/>
</g>
<g filter="url(#filter12_d)">
<path d="M47 34.7556C50.6572 33.5848 54.5151 35.4203 58.0877 36.8176C61.6087 38.1947 65.3705 39.1871 69.1576 38.9702C72.9447 38.7533 76.7748 37.1939 79.0644 34.2446C81.354 31.2954 81.7569 26.8753 79.4905 23.9091C77.9985 21.9564 75.6179 20.8423 73.2339 20.1168C68.1403 18.5667 62.4395 18.5132 57.5978 20.7C52.7561 22.8869 48.9595 27.5067 48.5606 32.6947" fill="#2F2E41"/>
</g>
<g filter="url(#filter13_d)">
<path d="M64.1976 21.4153C62.9895 13.164 67.4696 4.5969 73.5842 1.52363C79.6988 -1.54964 86.8723 0.263306 92.3808 4.83979C97.8892 9.41628 101.905 16.449 104.893 23.9248C107.882 31.4006 109.952 39.4077 112.387 47.2044C114.55 54.1288 117.088 61.0574 121.196 66.3532C125.303 71.6491 131.277 75.0952 137 73.6402C132.298 80.0184 123.647 78.914 118.281 73.4584C112.914 68.0028 110.124 59.4757 107.928 51.1753C105.732 42.8749 103.822 34.19 99.5733 27.3116C92.0156 15.0749 77.1847 11.3986 66.5933 19.1365" fill="#2F2E41"/>
</g>
<defs>
<filter id="filter0_d" x="40" y="17" width="49" height="49" filterUnits="userSpaceOnUse" color-interpolation-filters="sRGB">
<feFlood flood-opacity="0" result="BackgroundImageFix"/>
<feColorMatrix in="SourceAlpha" type="matrix" values="0 0 0 0 0 0 0 0 0 0 0 0 0 0 0 0 0 0 127 0"/>
<feOffset dy="4"/>
<feGaussianBlur stdDeviation="2"/>
<feColorMatrix type="matrix" values="0 0 0 0 0 0 0 0 0 0 0 0 0 0 0 0 0 0 0.25 0"/>
<feBlend mode="normal" in2="BackgroundImageFix" result="effect1_dropShadow"/>
<feBlend mode="normal" in="SourceGraphic" in2="effect1_dropShadow" result="shape"/>
</filter>
<filter id="filter1_d" x="113" y="264" width="22" height="42" filterUnits="userSpaceOnUse" color-interpolation-filters="sRGB">
<feFlood flood-opacity="0" result="BackgroundImageFix"/>
<feColorMatrix in="SourceAlpha" type="matrix" values="0 0 0 0 0 0 0 0 0 0 0 0 0 0 0 0 0 0 127 0"/>
<feOffset dy="4"/>
<feGaussianBlur stdDeviation="2"/>
<feColorMatrix type="matrix" values="0 0 0 0 0 0 0 0 0 0 0 0 0 0 0 0 0 0 0.25 0"/>
<feBlend mode="normal" in2="BackgroundImageFix" result="effect1_dropShadow"/>
<feBlend mode="normal" in="SourceGraphic" in2="effect1_dropShadow" result="shape"/>
</filter>
<filter id="filter2_d" x="100" y="296" width="36" height="19" filterUnits="userSpaceOnUse" color-interpolation-filters="sRGB">
<feFlood flood-opacity="0" result="BackgroundImageFix"/>
<feColorMatrix in="SourceAlpha" type="matrix" values="0 0 0 0 0 0 0 0 0 0 0 0 0 0 0 0 0 0 127 0"/>
<feOffset dy="4"/>
<feGaussianBlur stdDeviation="2"/>
<feColorMatrix type="matrix" values="0 0 0 0 0 0 0 0 0 0 0 0 0 0 0 0 0 0 0.25 0"/>
<feBlend mode="normal" in2="BackgroundImageFix" result="effect1_dropShadow"/>
<feBlend mode="normal" in="SourceGraphic" in2="effect1_dropShadow" result="shape"/>
</filter>
<filter id="filter3_d" x="27" y="261" width="26" height="44" filterUnits="userSpaceOnUse" color-interpolation-filters="sRGB">
<feFlood flood-opacity="0" result="BackgroundImageFix"/>
<feColorMatrix in="SourceAlpha" type="matrix" values="0 0 0 0 0 0 0 0 0 0 0 0 0 0 0 0 0 0 127 0"/>
<feOffset dy="4"/>
<feGaussianBlur stdDeviation="2"/>
<feColorMatrix type="matrix" values="0 0 0 0 0 0 0 0 0 0 0 0 0 0 0 0 0 0 0.25 0"/>
<feBlend mode="normal" in2="BackgroundImageFix" result="effect1_dropShadow"/>
<feBlend mode="normal" in="SourceGraphic" in2="effect1_dropShadow" result="shape"/>
</filter>
<filter id="filter4_d" x="8.659" y="290.507" width="37.7988" height="23.2647" filterUnits="userSpaceOnUse" color-interpolation-filters="sRGB">
<feFlood flood-opacity="0" result="BackgroundImageFix"/>
<feColorMatrix in="SourceAlpha" type="matrix" values="0 0 0 0 0 0 0 0 0 0 0 0 0 0 0 0 0 0 127 0"/>
<feOffset dy="4"/>
<feGaussianBlur stdDeviation="2"/>
<feColorMatrix type="matrix" values="0 0 0 0 0 0 0 0 0 0 0 0 0 0 0 0 0 0 0.25 0"/>
<feBlend mode="normal" in2="BackgroundImageFix" result="effect1_dropShadow"/>
<feBlend mode="normal" in="SourceGraphic" in2="effect1_dropShadow" result="shape"/>
</filter>
<filter id="filter5_d" x="27" y="126" width="112" height="174" filterUnits="userSpaceOnUse" color-interpolation-filters="sRGB">
<feFlood flood-opacity="0" result="BackgroundImageFix"/>
<feColorMatrix in="SourceAlpha" type="matrix" values="0 0 0 0 0 0 0 0 0 0 0 0 0 0 0 0 0 0 127 0"/>
<feOffset dy="4"/>
<feGaussianBlur stdDeviation="2"/>
<feColorMatrix type="matrix" values="0 0 0 0 0 0 0 0 0 0 0 0 0 0 0 0 0 0 0.25 0"/>
<feBlend mode="normal" in2="BackgroundImageFix" result="effect1_dropShadow"/>
<feBlend mode="normal" in="SourceGraphic" in2="effect1_dropShadow" result="shape"/>
</filter>
<filter id="filter6_d" x="0" y="161" width="36" height="41" filterUnits="userSpaceOnUse" color-interpolation-filters="sRGB">
<feFlood flood-opacity="0" result="BackgroundImageFix"/>
<feColorMatrix in="SourceAlpha" type="matrix" values="0 0 0 0 0 0 0 0 0 0 0 0 0 0 0 0 0 0 127 0"/>
<feOffset dy="4"/>
<feGaussianBlur stdDeviation="2"/>
<feColorMatrix type="matrix" values="0 0 0 0 0 0 0 0 0 0 0 0 0 0 0 0 0 0 0.25 0"/>
<feBlend mode="normal" in2="BackgroundImageFix" result="effect1_dropShadow"/>
<feBlend mode="normal" in="SourceGraphic" in2="effect1_dropShadow" result="shape"/>
</filter>
<filter id="filter7_d" x="96" y="135" width="36" height="41" filterUnits="userSpaceOnUse" color-interpolation-filters="sRGB">
<feFlood flood-opacity="0" result="BackgroundImageFix"/>
<feColorMatrix in="SourceAlpha" type="matrix" values="0 0 0 0 0 0 0 0 0 0 0 0 0 0 0 0 0 0 127 0"/>
<feOffset dy="4"/>
<feGaussianBlur stdDeviation="2"/>
<feColorMatrix type="matrix" values="0 0 0 0 0 0 0 0 0 0 0 0 0 0 0 0 0 0 0.25 0"/>
<feBlend mode="normal" in2="BackgroundImageFix" result="effect1_dropShadow"/>
<feBlend mode="normal" in="SourceGraphic" in2="effect1_dropShadow" result="shape"/>
</filter>
<filter id="filter8_d" x="43" y="26" width="44" height="44" filterUnits="userSpaceOnUse" color-interpolation-filters="sRGB">
<feFlood flood-opacity="0" result="BackgroundImageFix"/>
<feColorMatrix in="SourceAlpha" type="matrix" values="0 0 0 0 0 0 0 0 0 0 0 0 0 0 0 0 0 0 127 0"/>
<feOffset dy="4"/>
<feGaussianBlur stdDeviation="2"/>
<feColorMatrix type="matrix" values="0 0 0 0 0 0 0 0 0 0 0 0 0 0 0 0 0 0 0.25 0"/>
<feBlend mode="normal" in2="BackgroundImageFix" result="effect1_dropShadow"/>
<feBlend mode="normal" in="SourceGraphic" in2="effect1_dropShadow" result="shape"/>
</filter>
<filter id="filter9_d" x="29" y="67" width="83" height="86" filterUnits="userSpaceOnUse" color-interpolation-filters="sRGB">
<feFlood flood-opacity="0" result="BackgroundImageFix"/>
<feColorMatrix in="SourceAlpha" type="matrix" values="0 0 0 0 0 0 0 0 0 0 0 0 0 0 0 0 0 0 127 0"/>
<feOffset dy="4"/>
<feGaussianBlur stdDeviation="2"/>
<feColorMatrix type="matrix" values="0 0 0 0 0 0 0 0 0 0 0 0 0 0 0 0 0 0 0.25 0"/>
<feBlend mode="normal" in2="BackgroundImageFix" result="effect1_dropShadow"/>
<feBlend mode="normal" in="SourceGraphic" in2="effect1_dropShadow" result="shape"/>
</filter>
<filter id="filter10_d" x="93" y="70" width="41" height="85" filterUnits="userSpaceOnUse" color-interpolation-filters="sRGB">
<feFlood flood-opacity="0" result="BackgroundImageFix"/>
<feColorMatrix in="SourceAlpha" type="matrix" values="0 0 0 0 0 0 0 0 0 0 0 0 0 0 0 0 0 0 127 0"/>
<feOffset dy="4"/>
<feGaussianBlur stdDeviation="2"/>
<feColorMatrix type="matrix" values="0 0 0 0 0 0 0 0 0 0 0 0 0 0 0 0 0 0 0.25 0"/>
<feBlend mode="normal" in2="BackgroundImageFix" result="effect1_dropShadow"/>
<feBlend mode="normal" in="SourceGraphic" in2="effect1_dropShadow" result="shape"/>
</filter>
<filter id="filter11_d" x="9" y="76" width="42" height="107" filterUnits="userSpaceOnUse" color-interpolation-filters="sRGB">
<feFlood flood-opacity="0" result="BackgroundImageFix"/>
<feColorMatrix in="SourceAlpha" type="matrix" values="0 0 0 0 0 0 0 0 0 0 0 0 0 0 0 0 0 0 127 0"/>
<feOffset dy="4"/>
<feGaussianBlur stdDeviation="2"/>
<feColorMatrix type="matrix" values="0 0 0 0 0 0 0 0 0 0 0 0 0 0 0 0 0 0 0.25 0"/>
<feBlend mode="normal" in2="BackgroundImageFix" result="effect1_dropShadow"/>
<feBlend mode="normal" in="SourceGraphic" in2="effect1_dropShadow" result="shape"/>
</filter>
<filter id="filter12_d" x="43" y="19" width="42" height="28" filterUnits="userSpaceOnUse" color-interpolation-filters="sRGB">
<feFlood flood-opacity="0" result="BackgroundImageFix"/>
<feColorMatrix in="SourceAlpha" type="matrix" values="0 0 0 0 0 0 0 0 0 0 0 0 0 0 0 0 0 0 127 0"/>
<feOffset dy="4"/>
<feGaussianBlur stdDeviation="2"/>
<feColorMatrix type="matrix" values="0 0 0 0 0 0 0 0 0 0 0 0 0 0 0 0 0 0 0.25 0"/>
<feBlend mode="normal" in2="BackgroundImageFix" result="effect1_dropShadow"/>
<feBlend mode="normal" in="SourceGraphic" in2="effect1_dropShadow" result="shape"/>
</filter>
<filter id="filter13_d" x="60" y="0" width="81" height="86" filterUnits="userSpaceOnUse" color-interpolation-filters="sRGB">
<feFlood flood-opacity="0" result="BackgroundImageFix"/>
<feColorMatrix in="SourceAlpha" type="matrix" values="0 0 0 0 0 0 0 0 0 0 0 0 0 0 0 0 0 0 127 0"/>
<feOffset dy="4"/>
<feGaussianBlur stdDeviation="2"/>
<feColorMatrix type="matrix" values="0 0 0 0 0 0 0 0 0 0 0 0 0 0 0 0 0 0 0.25 0"/>
<feBlend mode="normal" in2="BackgroundImageFix" result="effect1_dropShadow"/>
<feBlend mode="normal" in="SourceGraphic" in2="effect1_dropShadow" result="shape"/>
</filter>
</defs>
</svg>
