<svg width="261" height="149" viewBox="0 0 261 149" fill="none" xmlns="http://www.w3.org/2000/svg">
<g clip-path="url(#clip0)">
<rect width="261" height="149" fill="white"/>
<path opacity="0.1" d="M156.901 107.393C161.943 107.105 168.199 103.682 173.063 102.169C178.82 100.381 184.6 98.6619 190.402 97.0102C210.602 91.2574 231.019 86.3556 251.653 82.3048C253.578 81.9257 255.507 81.5558 257.439 81.195C254.43 74.6876 249.768 69.084 243.919 64.9437C244.068 63.5191 244.145 62.0878 244.147 60.6553C244.147 38.0172 226.071 19.665 203.765 19.665C196.897 19.6577 190.145 21.4318 184.167 24.8142C168.379 14.4199 147.773 8.12903 125.228 8.12903C93.1911 8.12903 65.0675 20.8319 49.1314 39.9604L124.027 52.6244L169.963 60.3882C117.596 61.9523 65.0675 63.5074 12.8515 59.8356C5.95874 66.5107 1.5961 75.3746 0.509164 84.9123C-0.577768 94.45 1.67848 104.069 6.89231 112.127C6.89231 112.946 6.92653 113.759 6.98813 114.565C8.31823 114.947 9.60269 115.317 10.7548 115.559C29.2515 119.47 47.8667 122.742 66.6006 125.378C52.7954 133.897 35.9833 135.103 20.0587 138.711C27.77 145.082 38.242 148.986 49.7816 148.986H221.604C240.209 148.986 255.289 136.023 255.289 120.03C258.081 115.422 259.942 110.31 260.765 104.984C226.338 108.311 191.481 105.422 156.901 107.393Z" fill="#6C63FF"/>
<path opacity="0.1" d="M261 98.1726C261.018 91.5812 259.453 85.082 256.435 79.2233C253.417 73.3646 249.036 68.3183 243.661 64.5099C243.809 63.086 243.886 61.6555 243.889 60.2239C243.889 37.5857 225.804 19.2404 203.507 19.2404C196.639 19.2331 189.886 21.0063 183.907 24.3873C168.119 13.9885 147.511 7.69528 124.965 7.69528C88.2928 7.69528 56.7264 24.3531 42.7273 48.2403C41.9493 48.1946 41.1668 48.1695 40.3774 48.1695C18.0783 48.1695 -0.00456745 66.5216 -0.00456745 89.1598C-0.0201972 97.1561 2.28809 104.984 6.63907 111.691C6.63907 132.059 25.8467 148.571 49.5307 148.571H221.357C239.96 148.571 255.041 135.605 255.041 119.612C258.953 113.147 261.015 105.731 261 98.1726Z" fill="#6C63FF"/>
<path d="M213.153 73.0591C212.827 72.8084 212.445 72.6408 212.04 72.5704C211.613 72.4722 211.177 72.4106 210.744 72.3421L205.127 71.5314C204.56 71.4261 203.982 71.3954 203.407 71.4401C203.118 71.4638 202.837 71.5446 202.58 71.6779C202.324 71.8112 202.096 71.9943 201.91 72.2165C201.743 72.4232 201.651 72.6811 201.65 72.9472C201.681 73.215 201.768 73.4733 201.905 73.7053C201.96 73.8137 202.006 73.9259 202.045 74.041C202.098 74.2992 202.165 74.5546 202.245 74.8059C202.27 74.8603 202.302 74.9111 202.341 74.9566C202.342 74.9695 202.342 74.9825 202.341 74.9954C202.28 75.3106 202.478 75.6394 202.389 75.9431C202.312 76.2034 202.058 76.361 201.899 76.5779C201.792 76.7318 201.733 76.9136 201.729 77.1008C201.725 77.288 201.776 77.4722 201.876 77.6306C202.047 77.8954 202.357 78.0758 202.446 78.3795C202.563 78.7791 202.248 79.165 201.967 79.4733C201.451 80.0408 200.974 80.6427 200.539 81.2749C200.417 81.4304 200.338 81.6156 200.311 81.8116C200.286 82.2089 200.667 82.5582 200.6 82.9533C200.548 83.2638 200.245 83.4534 199.982 83.6383C199.013 84.2777 198.235 85.3052 198.157 86.4675C197.908 84.6183 197.143 82.877 195.949 81.4439C195.622 81.0512 195.264 80.6561 195.129 80.1583C195.079 79.9597 195.07 79.7473 195.002 79.5555C194.774 78.9504 194.048 78.6901 193.731 78.1329C193.503 77.7402 193.503 77.2355 193.22 76.8907C192.937 76.5459 192.492 76.4683 192.248 76.1349C192.126 75.9091 192.022 75.6739 191.938 75.4316C191.835 75.234 191.691 75.0611 191.516 74.9247C191.482 74.8977 191.447 74.8726 191.411 74.8493C191.449 74.8154 191.479 74.7739 191.5 74.7274C191.521 74.681 191.531 74.6307 191.532 74.5799C191.532 74.3127 191.267 74.1369 191.037 74.0044C190.74 73.8354 190.45 73.6528 190.167 73.4632C190.476 73.3194 190.743 73.1004 190.945 72.8262C191.198 72.4171 191.303 71.9333 191.242 71.4561C191.226 71.0709 191.083 70.702 190.833 70.408C190.69 70.255 190.51 70.1454 190.359 70.0015C189.969 69.6202 189.836 69.0562 189.674 68.5356C189.46 67.8505 189.125 67.1312 188.5 66.7682C188.198 66.5923 187.847 66.5101 187.553 66.3252C187.258 66.1402 187.012 65.7908 187.115 65.4552C187.183 65.2268 187.395 65.0693 187.539 64.8752C187.711 64.6242 187.776 64.3156 187.722 64.0164C187.668 63.7172 187.498 63.4514 187.249 63.2768C187.08 63.1694 186.873 63.0758 186.839 62.8794C186.707 62.8451 186.587 62.7742 186.493 62.6748C186.4 62.5755 186.336 62.4517 186.309 62.3177C186.258 62.0492 186.258 61.7733 186.309 61.5048C186.369 61.0801 186.427 60.6569 186.485 60.2352C186.585 60.277 186.693 60.2986 186.802 60.2986C186.911 60.2986 187.019 60.277 187.119 60.2352C187.317 60.5559 187.546 60.8558 187.804 61.1303C188.498 61.9514 189.039 62.8913 189.401 63.9047C189.531 64.2701 189.663 64.6788 190.001 64.8729C190.117 64.9391 190.249 64.9734 190.363 65.0442C190.504 65.1423 190.625 65.2663 190.719 65.4095C190.993 65.7726 191.267 66.1334 191.538 66.4964L191.552 66.5512C191.56 66.5834 191.572 66.6142 191.589 66.6426C191.639 66.6995 191.709 66.7353 191.785 66.743C192.624 66.9371 193.567 67.1152 194.294 66.6563C194.952 66.2452 195.239 65.4323 195.796 64.8889C196.19 64.503 196.749 64.2038 196.861 63.6604C196.728 63.6192 196.597 63.5712 196.469 63.5165C196.583 63.4023 196.697 63.2699 196.852 63.1192C197.077 62.8983 197.281 62.6559 197.459 62.3953C197.651 62.0739 197.805 61.7305 197.915 61.3724C198.355 60.118 198.796 58.8628 199.238 57.6069C199.448 57.0132 199.658 56.415 199.923 55.8373C200.197 55.2116 200.521 54.611 200.819 53.9968C201.591 52.3993 202.186 50.7225 202.594 48.996C202.667 48.7605 202.691 48.5127 202.665 48.2676C202.601 47.8726 202.302 47.562 202.017 47.2812C201.73 46.9704 201.404 46.6994 201.045 46.4751C200.865 46.3631 200.665 46.2881 200.456 46.2544C200.247 46.2207 200.033 46.2289 199.827 46.2787C199.243 46.45 198.876 47.0482 198.741 47.6488C198.606 48.2493 198.657 48.8682 198.6 49.4756C198.517 50.3547 198.216 51.2041 198.143 52.0855C198.105 52.5948 198.143 53.1108 198.082 53.62C197.969 54.2864 197.738 54.927 197.397 55.5107C196.657 56.9029 195.656 58.1388 194.447 59.1506C194.308 59.267 194.164 59.3789 194.028 59.5045C194.028 59.4063 194.044 59.3058 194.057 59.2076C193.958 59.2335 193.861 59.2679 193.767 59.3104C193.779 59.1951 193.767 59.0786 193.733 58.9679C193.551 58.4221 192.738 58.2828 192.592 57.728C192.568 57.5907 192.555 57.4517 192.554 57.3124C192.506 56.826 192.175 56.415 192.061 55.9423C191.956 55.5062 192.036 55.0289 191.833 54.6247C191.66 54.372 191.456 54.1419 191.226 53.9397C190.952 53.6263 190.754 53.2534 190.649 52.8505C190.619 52.7386 190.592 52.6222 190.56 52.5103C190.594 52.2569 190.566 51.9989 190.478 51.759C190.27 51.243 189.734 50.9119 189.54 50.3889C189.389 49.9825 189.455 49.4756 189.17 49.1604C189.019 49.0099 188.833 48.8979 188.63 48.8339C187.585 48.4269 186.49 48.1679 185.374 48.0644C184.749 48.0073 184.06 47.9753 183.613 47.5346C183.09 47.0231 183.065 46.1029 182.454 45.7079C181.915 45.3585 181.153 45.6165 180.736 46.1075C180.673 46.1797 180.615 46.256 180.562 46.3358C180.486 46.0298 180.47 45.7118 180.514 45.3996C180.514 45.322 180.53 45.242 180.537 45.1712C181.567 44.8343 182.444 44.1414 183.01 43.2166C183.01 43.2166 183.01 43.2166 183.01 43.2303L183.038 43.3011C183.104 43.4678 183.209 43.6276 183.364 43.6459C183.467 43.6447 183.567 43.6084 183.647 43.5431C183.784 43.4474 183.911 43.3372 184.026 43.2143C184.083 43.1504 184.138 43.0842 184.19 43.0157C184.295 42.8731 184.385 42.72 184.459 42.559C184.572 42.3166 184.649 42.0589 184.687 41.794C184.728 41.5291 184.733 41.2574 184.778 40.9925C184.821 40.7875 184.877 40.5854 184.945 40.3874C184.968 40.3212 184.991 40.255 185.011 40.1887C185.032 40.1225 185.061 40.0335 185.084 39.9604C185.227 39.4908 185.304 39.0035 185.312 38.5127C185.312 38.4305 185.312 38.3483 185.312 38.2661C185.304 37.9457 185.232 37.6303 185.1 37.3382C184.969 37.0461 184.78 36.7832 184.546 36.5649C184.153 36.2429 183.633 36.1082 183.346 35.6721C183.159 35.3798 183.118 35.003 183.008 34.6605C182.89 34.2506 182.659 33.8821 182.342 33.5967C182.025 33.3114 181.635 33.1206 181.215 33.0461C180.709 32.9906 180.202 33.1303 179.796 33.4366L179.764 33.4617C179.538 33.6346 179.346 33.8484 179.198 34.0919C178.897 34.0088 178.621 33.8519 178.395 33.6352C178.167 33.4229 177.991 33.1557 177.761 32.9502C177.545 32.7528 177.281 32.6169 176.995 32.5567C176.71 32.4964 176.413 32.514 176.136 32.6077C175.851 32.7219 175.598 32.9021 175.396 33.1335C175.194 33.3649 175.05 33.641 174.975 33.9389C174.849 34.4093 174.872 34.9505 174.61 35.3433C174.407 35.6492 174.074 35.7999 173.841 36.0785C173.697 36.2549 173.598 36.4644 173.554 36.6882C173.526 36.8134 173.513 36.9414 173.515 37.0695C173.515 37.1266 173.515 37.1837 173.529 37.2385C173.529 37.2385 173.529 37.2568 173.529 37.2659C173.537 37.3285 173.55 37.3903 173.567 37.4509C173.632 37.6824 173.748 37.8962 173.907 38.0766C174.058 38.2492 174.246 38.3851 174.457 38.4739C174.543 38.5075 174.632 38.5357 174.722 38.5584L174.993 38.62L175.089 38.6428C174.761 39.2585 174.58 39.9413 174.557 40.6385C174.535 41.3358 174.673 42.0287 174.961 42.664C174.961 42.7279 174.945 42.7919 174.938 42.8558C174.901 43.755 174.941 44.6556 175.057 45.548C175.089 45.9019 175.107 46.2924 174.891 46.5733C174.792 46.6838 174.681 46.7826 174.56 46.8679C174.683 46.708 174.808 46.5505 174.936 46.3929C174.615 46.0686 174.106 46.0275 173.649 46.0595C172.766 46.1255 171.909 46.3876 171.14 46.8267C170.629 47.1213 170.104 47.5118 169.52 47.4433C169.175 47.4045 168.836 47.2149 168.5 47.3063C168.312 47.3835 168.136 47.4881 167.978 47.6168C167.853 47.7064 167.702 47.7529 167.549 47.7493C167.191 47.3086 166.636 47.0094 166.207 46.6509C165.719 46.216 165.272 45.7367 164.873 45.2192C164.133 44.3264 163.397 43.4313 162.671 42.5293C162.06 41.7712 161.432 40.9514 161.325 39.981C161.314 39.8847 161.309 39.7878 161.309 39.691C161.324 39.2298 161.382 38.7711 161.482 38.3209C161.509 38.2122 161.509 38.0985 161.482 37.9898C161.414 37.7614 161.152 37.6769 160.926 37.6267C160.955 37.4509 160.976 37.2705 160.987 37.0992C161.115 35.1355 160.976 33.1397 161.391 31.2171C161.549 30.4772 161.806 29.7282 162.338 29.1916C163.171 28.349 164.565 28.1458 165.203 27.1479C165.737 26.3168 165.525 25.1408 164.854 24.4078C164.184 23.6748 163.15 23.3757 162.167 23.4122C161.891 23.4027 161.618 23.4759 161.384 23.6223C161.165 23.8168 161.002 24.0657 160.91 24.3439L159.931 26.7255C159.647 27.3456 159.408 27.985 159.215 28.639C158.941 29.6392 158.879 30.6941 158.662 31.7034C158.662 32.4798 158.163 33.448 157.889 34.1627C157.583 34.9665 157.253 35.7611 156.976 36.5809C156.908 36.7864 156.668 37.3961 156.52 37.951C156.464 37.9836 156.412 38.0227 156.365 38.0674C156.246 38.2202 156.138 38.3812 156.041 38.5492C155.833 38.8232 155.496 38.9694 155.268 39.2343C155.039 39.4991 154.992 39.9855 155.309 40.118C155.373 40.1396 155.44 40.1542 155.507 40.1613C155.549 40.1649 155.59 40.1717 155.63 40.1819C155.973 40.2778 156.107 40.7094 156.057 41.0656C156.007 41.4218 155.829 41.7506 155.799 42.1069C155.738 42.7371 156.107 43.3239 156.463 43.8537C156.832 44.428 157.239 44.9765 157.681 45.4955C158.003 45.8563 158.366 46.1805 158.69 46.5276C159.924 47.7972 160.905 49.2815 162.014 50.6607C162.413 51.1812 162.866 51.6574 163.367 52.081C163.694 52.3368 164.036 52.5725 164.391 52.7866L166.299 53.9968C166.515 54.1554 166.76 54.271 167.019 54.337C167.104 54.3485 167.19 54.3485 167.275 54.337C167.286 54.3941 167.296 54.4489 167.309 54.506C167.458 55.1043 167.784 55.6477 167.82 56.2574C167.857 56.8671 167.802 57.4905 167.845 58.107C167.886 58.6756 168.012 59.2487 168.044 59.8082C168.108 60.886 167.843 61.9501 167.588 63.005C167.202 64.5486 166.969 66.1242 166.219 67.524C166.009 67.9099 165.762 68.3026 165.762 68.7434C165.762 68.7959 165.762 68.8507 165.776 68.9032L165.434 69.0973C165.333 69.1544 165.233 69.2115 165.142 69.2708C164.708 69.554 164.245 69.8668 164.067 70.3555C163.924 70.7505 163.99 71.2026 163.816 71.5862C163.808 71.6035 163.799 71.6202 163.789 71.6365C163.606 71.9927 163.244 72.2576 163.162 72.6481C163.1 72.9472 163.219 73.2646 163.162 73.5614C163.162 73.5614 163.162 73.5614 163.162 73.5729C163.11 73.7219 163.068 73.8746 163.038 74.0295C163.036 74.0802 163.04 74.1309 163.052 74.1803C163.095 74.3533 163.191 74.5087 163.326 74.6255C163.408 74.7045 163.497 74.7756 163.593 74.8379C163.69 74.9018 163.79 74.9612 163.894 75.016L163.953 75.048C164.04 75.0936 164.127 75.137 164.216 75.1781L164.275 75.2032C164.378 75.2489 164.482 75.29 164.587 75.3265L164.66 75.3494C164.743 75.3768 164.827 75.4019 164.911 75.4225L164.968 75.4407L165.021 75.4521L165.249 75.5001L165.333 75.5161C165.434 75.5328 165.537 75.5465 165.641 75.5572H165.733C165.81 75.5572 165.886 75.5686 165.961 75.5709H166.068C166.148 75.5709 166.226 75.5709 166.296 75.5709H166.378C166.486 75.5709 166.593 75.5549 166.7 75.5412H166.734C166.83 75.5275 166.926 75.5115 167.022 75.491L167.095 75.475C167.184 75.4544 167.273 75.4339 167.362 75.4065L167.41 75.3928C167.517 75.3608 167.624 75.3265 167.729 75.2854C168.092 75.1361 168.444 74.9613 168.783 74.7625C169.011 74.6369 169.239 74.5091 169.468 74.3926C169.637 74.3073 169.81 74.231 169.988 74.1643C170.419 73.9798 170.889 73.9015 171.357 73.9359C171.587 73.9674 171.816 74.0139 172.041 74.0752C172.041 74.1003 172.041 74.1255 172.041 74.1506C172.227 75.2466 172.41 76.3427 172.591 77.4387C172.89 77.2235 173.205 77.0334 173.535 76.8702C173.474 77.0357 173.433 77.2083 173.414 77.3839C173.401 77.5198 173.401 77.6568 173.414 77.7927C173.435 78.0096 173.481 78.2494 173.351 78.4206C173.271 78.5257 173.122 78.585 173.079 78.7038C173.047 78.8252 173.04 78.9516 173.056 79.076C173.047 79.2179 172.987 79.3518 172.887 79.4532C172.788 79.5546 172.655 79.6168 172.513 79.6286C172.579 79.8124 172.58 80.0128 172.518 80.1976C172.455 80.3824 172.332 80.5407 172.169 80.647C172.073 80.693 171.984 80.7513 171.904 80.8205C171.826 80.9214 171.774 81.0397 171.751 81.1653C171.45 82.2962 170.83 83.3163 169.965 84.1041C169.64 84.3593 169.344 84.6487 169.082 84.9673C168.92 85.214 168.786 85.4783 168.683 85.7551C168.074 87.2439 167.457 88.7335 166.83 90.2238C166.483 91.0573 166.146 91.9044 166.036 92.8018C165.762 95.2634 163.572 97.3505 163.983 99.7938C164.066 100.404 164.312 100.981 164.695 101.463C165.151 102.013 165.835 102.328 166.52 102.584C168.279 103.269 170.134 103.644 171.982 104.02L174.884 104.616C175.453 104.748 176.031 104.839 176.613 104.89C177.313 104.938 178.032 104.872 178.714 105.05C179.136 105.16 179.54 105.363 179.976 105.386C180.35 105.407 180.811 105.327 181.032 105.633C181.254 105.939 181.082 106.343 181.292 106.614C181.63 107.046 182.454 106.614 182.821 107.021C182.921 107.177 182.998 107.347 183.049 107.526C183.105 107.636 183.183 107.734 183.277 107.813C183.3 107.942 183.309 108.073 183.305 108.204C183.257 108.734 183.147 109.257 182.976 109.761C182.702 110.688 182.429 111.616 182.157 112.545C182.053 112.873 181.977 113.209 181.929 113.549C181.912 113.715 181.912 113.882 181.929 114.047C181.977 114.552 182.267 115.072 182.748 115.237C183.121 115.336 183.519 115.286 183.857 115.1C184.183 114.929 184.489 114.722 184.769 114.483C185.274 114.101 185.718 113.643 186.086 113.127C187.226 111.419 186.857 109.108 187.658 107.22C188.189 105.959 189.225 104.936 189.57 103.607C189.65 103.354 189.66 103.084 189.597 102.826C189.453 102.369 188.967 102.109 188.513 101.945H188.493C188.12 101.812 187.739 101.703 187.352 101.618C187.256 101.598 187.158 101.582 187.06 101.566C186.843 101.389 186.67 101.164 186.556 100.908C186.538 100.772 186.502 100.639 186.448 100.513C186.412 100.459 186.363 100.414 186.306 100.382C186.249 100.35 186.185 100.332 186.12 100.33C185.892 100.308 185.586 100.39 185.337 100.371C184.829 100.335 184.491 99.8349 184.035 99.6042C183.578 99.3736 183.083 99.4307 182.597 99.465C182.424 99.4887 182.247 99.4779 182.077 99.433C181.875 99.3396 181.689 99.2121 181.53 99.0562C181.249 98.8375 180.921 98.6872 180.572 98.617C180.223 98.5469 179.863 98.5589 179.52 98.652C179.301 98.7403 179.07 98.7927 178.835 98.8073C178.39 98.7822 178.075 98.3849 177.747 98.0835C176.848 97.2591 175.568 97.0422 174.478 96.501C174.311 96.4389 174.172 96.319 174.085 96.1631C173.96 95.8525 174.243 95.542 174.498 95.3296L176.374 93.77C178.427 92.062 180.993 90.7764 181.947 88.2715C182.047 87.9356 182.201 87.6185 182.403 87.333C182.477 87.2458 182.562 87.169 182.657 87.1046C183.072 86.8356 183.574 86.7374 184.06 86.8306C184.651 86.9631 185.212 87.2081 185.712 87.5522C186.528 88.0469 187.323 88.5797 188.096 89.1506C188.861 89.698 189.589 90.2961 190.275 90.9408C191.472 92.0825 192.469 93.4366 193.585 94.6674C194.701 95.8982 195.976 97.0468 197.525 97.6359C199.074 98.225 200.947 98.1999 202.277 97.2112C203.813 96.0695 204.306 94.028 204.693 92.1556C205.549 91.329 205.807 90.0708 206.224 88.9588C206.487 88.2532 206.822 87.5887 207.105 86.8854C207.443 86.0588 207.707 85.2048 207.972 84.353C208.272 83.4977 208.475 82.6116 208.579 81.7111C208.688 80.2885 208.307 78.7746 208.707 77.4387C209.234 77.3223 209.713 77.0254 210.231 76.8519C211.002 76.5984 211.828 76.6395 212.644 76.6441H212.697C212.978 76.6741 213.261 76.6072 213.5 76.4546C213.774 76.2262 213.817 75.8358 213.831 75.4818C213.863 74.6073 213.808 73.6254 213.153 73.0591ZM180.097 34.1079C179.908 34.1546 179.713 34.1685 179.52 34.149L180.097 34.1079Z" fill="url(#paint0_linear)"/>
<path d="M180.996 48.553C180.719 48.7879 180.396 48.96 180.047 49.0577L178.429 49.6377C177.551 49.9528 176.634 50.2702 175.707 50.156C175.189 50.0921 172.97 49.7655 172.634 49.3614C172.123 48.7357 173.914 47.8155 174.525 47.288C174.664 47.1883 174.792 47.0751 174.909 46.95C175.137 46.6715 175.107 46.281 175.075 45.9293C174.959 45.0385 174.92 44.1393 174.957 43.2417C174.974 43.0277 175.005 42.815 175.048 42.6046C175.276 41.5542 176.253 41.9379 177.024 42.2164C177.952 42.5182 178.85 42.9074 179.704 43.3787C179.965 43.5131 180.191 43.7052 180.366 43.9405C180.704 44.4519 180.569 45.1233 180.514 45.7672C180.466 46.2673 180.469 46.7468 180.781 47.1099C180.939 47.2487 181.083 47.4016 181.212 47.5666C181.285 47.7328 181.304 47.9179 181.265 48.0952C181.226 48.2725 181.132 48.4328 180.996 48.553Z" fill="#BE6F72"/>
<path d="M158.651 32.0962C158.879 31.0846 158.929 30.0411 159.203 29.0387C159.396 28.3869 159.636 27.7497 159.92 27.132L160.926 24.7823C161.018 24.5049 161.181 24.2567 161.4 24.063C161.635 23.9176 161.907 23.8446 162.183 23.8529C163.166 23.8164 164.2 24.1224 164.87 24.8463C165.541 25.5701 165.753 26.7415 165.219 27.5704C164.581 28.5683 163.187 28.7692 162.354 29.6095C161.822 30.1461 161.564 30.8928 161.407 31.6304C160.992 33.5485 161.131 35.5374 161.003 37.4966C160.962 38.1063 160.844 38.8027 160.319 39.1178C160.002 39.2734 159.649 39.3419 159.297 39.3165L157.8 39.3416C157.549 39.3416 156.639 39.4992 156.472 39.3097C156.18 38.9786 156.846 37.3299 156.967 36.9623C157.237 36.1471 157.567 35.3524 157.88 34.5509C158.151 33.8362 158.651 32.8703 158.651 32.0962Z" fill="#BE6F72"/>
<path d="M189.554 103.833C189.209 105.153 188.173 106.181 187.642 107.439C186.841 109.323 187.201 111.627 186.07 113.33C185.703 113.848 185.259 114.306 184.753 114.689C184.473 114.927 184.167 115.133 183.841 115.303C183.503 115.49 183.105 115.539 182.732 115.44C182.251 115.276 181.961 114.755 181.913 114.253C181.896 114.088 181.896 113.922 181.913 113.757C181.961 113.417 182.037 113.082 182.141 112.755C182.415 111.831 182.688 110.905 182.96 109.978C183.13 109.475 183.241 108.954 183.289 108.425C183.318 107.85 182.953 107.101 183.108 106.564C183.179 106.322 183.444 106.108 183.565 105.904C183.736 105.612 183.868 105.298 183.957 104.971C184.144 104.333 184.272 103.653 184.664 103.116C184.92 102.798 185.22 102.518 185.554 102.283C185.801 102.066 186.09 101.904 186.403 101.806C186.706 101.752 187.018 101.767 187.315 101.849C187.702 101.932 188.083 102.04 188.456 102.173H188.477C188.933 102.338 189.417 102.591 189.56 103.052C189.63 103.308 189.628 103.579 189.554 103.833Z" fill="#3F3D56"/>
<path d="M213.828 75.7605C213.815 76.1145 213.771 76.5095 213.498 76.731C213.259 76.8836 212.976 76.9505 212.694 76.9205H212.633C211.818 76.9205 210.99 76.8748 210.219 77.1283C209.633 77.3224 209.094 77.6786 208.483 77.7494C207.641 77.8453 206.849 77.3841 206.103 76.9822C205.401 76.6034 204.68 76.2605 203.943 75.9546C203.459 75.7559 202.471 75.6281 202.238 75.0983C202.159 74.8476 202.092 74.5931 202.038 74.3356C201.999 74.2206 201.953 74.1084 201.899 74C201.762 73.7686 201.675 73.5112 201.643 73.2441C201.644 72.978 201.736 72.7202 201.903 72.5134C202.089 72.2929 202.317 72.1114 202.574 71.9793C202.83 71.8473 203.11 71.7673 203.397 71.7439C203.972 71.6992 204.551 71.7299 205.118 71.8352L210.735 72.6436C211.168 72.7052 211.604 72.7669 212.031 72.8719C212.436 72.9423 212.818 73.11 213.144 73.3606C213.808 73.9178 213.863 74.8974 213.828 75.7605Z" fill="#3F3D56"/>
<path d="M208.891 77.2219C208.207 78.6673 208.7 80.3776 208.576 81.976C208.473 82.8743 208.269 83.7582 207.97 84.6111C207.705 85.4606 207.44 86.3123 207.103 87.1366C206.82 87.8217 206.484 88.5067 206.222 89.2055C205.804 90.3198 205.538 91.5734 204.691 92.4023C204.303 94.2702 203.81 96.3116 202.275 97.4442C200.94 98.4306 199.081 98.4649 197.523 97.8689C195.964 97.2729 194.698 96.1312 193.583 94.9004C192.467 93.6696 191.47 92.3292 190.272 91.1829C189.586 90.5381 188.856 89.9407 188.089 89.395C187.316 88.8332 186.521 88.305 185.705 87.8103C185.205 87.4678 184.644 87.2237 184.053 87.091C183.567 86.9978 183.065 87.0959 182.65 87.365C182.556 87.4294 182.47 87.5062 182.397 87.5933C182.193 87.8778 182.039 88.1942 181.94 88.5296C180.982 91.0277 178.411 92.311 176.358 94.0144L174.482 95.5695C174.227 95.7818 173.944 96.0924 174.069 96.4006C174.156 96.5565 174.295 96.6764 174.462 96.7386C175.552 97.2775 176.832 97.4944 177.731 98.3164C178.06 98.6179 178.374 99.0152 178.819 99.038C179.054 99.0242 179.285 98.9726 179.504 98.885C179.847 98.7921 180.207 98.78 180.556 98.8497C180.905 98.9194 181.232 99.0691 181.514 99.2869C181.673 99.4428 181.859 99.5703 182.061 99.6637C182.231 99.7086 182.408 99.7194 182.581 99.6957C183.067 99.6614 183.583 99.618 184.019 99.8349C184.454 100.052 184.813 100.563 185.321 100.6C185.57 100.618 185.867 100.536 186.104 100.559C186.169 100.561 186.233 100.579 186.29 100.61C186.347 100.642 186.396 100.687 186.432 100.741C186.486 100.867 186.522 100.999 186.54 101.134C186.633 101.456 186.948 101.653 187.153 101.917C187.468 102.324 187.514 102.877 187.482 103.39C187.379 104.997 186.663 106.502 185.483 107.596C185.148 107.939 184.721 108.177 184.254 108.281C184.02 108.33 183.776 108.305 183.557 108.207C183.339 108.11 183.156 107.947 183.035 107.74C182.984 107.562 182.908 107.393 182.807 107.238C182.44 106.834 181.616 107.263 181.279 106.831C181.069 106.562 181.219 106.13 181.019 105.852C180.818 105.573 180.334 105.623 179.962 105.608C179.526 105.585 179.123 105.379 178.701 105.272C178.016 105.094 177.3 105.16 176.599 105.112C176.017 105.061 175.439 104.969 174.87 104.838L171.968 104.244C170.12 103.868 168.265 103.486 166.506 102.813C165.833 102.557 165.155 102.242 164.681 101.694C164.298 101.212 164.053 100.636 163.969 100.027C163.556 97.5903 165.746 95.5078 166.022 93.0531C166.121 92.158 166.479 91.3131 166.816 90.4819C167.435 88.9961 168.053 87.5096 168.669 86.0223C168.769 85.7454 168.899 85.4804 169.057 85.2322C169.319 84.9143 169.615 84.6257 169.94 84.3714C170.804 83.5861 171.424 82.5682 171.726 81.4394C171.749 81.3138 171.801 81.1955 171.879 81.0946C171.96 81.0269 172.049 80.9693 172.144 80.9234C172.307 80.8172 172.429 80.6593 172.492 80.475C172.554 80.2907 172.553 80.0907 172.488 79.9072C172.63 79.8955 172.763 79.8333 172.862 79.7318C172.962 79.6304 173.022 79.4966 173.031 79.3546C173.015 79.231 173.022 79.1053 173.054 78.9847C173.109 78.866 173.246 78.8066 173.325 78.7016C173.455 78.5303 173.41 78.2905 173.389 78.0759C173.376 77.94 173.376 77.8031 173.389 77.6672C173.439 77.1836 173.655 76.7325 174.001 76.3907C174.546 75.8541 175.322 75.9934 176.075 75.8655C176.826 75.7033 177.559 75.4685 178.265 75.1645C180.244 74.3838 182.329 73.9013 184.45 73.7328C186.582 73.565 188.722 73.9062 190.697 74.7284C190.984 74.8448 191.255 74.9983 191.502 75.185C191.678 75.3206 191.822 75.4928 191.924 75.6897C192.008 75.9314 192.112 76.1659 192.234 76.3907C192.478 76.7241 192.939 76.8314 193.206 77.1465C193.473 77.4616 193.496 77.9937 193.717 78.3842C194.034 78.9413 194.769 79.1994 194.988 79.8045C195.056 79.9963 195.066 80.2064 195.116 80.405C195.239 80.9028 195.609 81.2956 195.935 81.6883C197.131 83.1201 197.897 84.862 198.143 86.7119C198.216 85.5542 198.994 84.5289 199.968 83.8896C200.231 83.7183 200.534 83.5288 200.587 83.2182C200.653 82.8255 200.272 82.4761 200.297 82.0765C200.325 81.8814 200.403 81.6971 200.525 81.5422C200.96 80.9114 201.437 80.311 201.953 79.7451C202.234 79.4368 202.549 79.0601 202.432 78.6536C202.343 78.3499 202.033 78.1718 201.862 77.9069C201.762 77.749 201.711 77.5651 201.715 77.3783C201.719 77.1914 201.778 77.01 201.885 76.8565C202.045 76.6396 202.298 76.482 202.375 76.224C202.464 75.9203 202.266 75.5915 202.328 75.2787C202.411 75.0282 202.577 74.8133 202.798 74.669C203.1 74.3931 203.444 74.1666 203.817 73.9976C204.42 73.7693 205.09 73.8538 205.729 73.9428C206.797 74.0913 207.995 74.3196 208.597 75.2147C208.983 75.7742 209.179 76.6236 208.891 77.2219Z" fill="#65617D"/>
<path opacity="0.1" d="M213.828 75.7605C213.815 76.1144 213.771 76.5095 213.497 76.731C213.259 76.8836 212.976 76.9505 212.694 76.9205H212.633C212.726 76.4455 213.304 76.1738 213.404 75.692C213.421 75.544 213.408 75.394 213.365 75.2514C213.321 75.1089 213.249 74.9767 213.153 74.8631C212.665 74.2032 211.88 73.8378 211.1 73.5707C208.895 72.8143 206.534 72.6374 204.242 73.0569C203.618 73.1585 203.012 73.3452 202.439 73.6118C202.249 73.7306 202.067 73.8602 201.892 74C201.755 73.7686 201.668 73.5111 201.636 73.2441C201.637 72.978 201.729 72.7202 201.896 72.5134C202.082 72.2929 202.31 72.1114 202.567 71.9793C202.823 71.8473 203.103 71.7673 203.391 71.7439C203.966 71.6992 204.544 71.7299 205.111 71.8352L210.728 72.6436C211.161 72.7052 211.597 72.7669 212.024 72.8719C212.429 72.9423 212.811 73.11 213.137 73.3606C213.808 73.9178 213.863 74.8973 213.828 75.7605Z" fill="black"/>
<path opacity="0.1" d="M189.554 103.833C189.209 105.153 188.173 106.181 187.642 107.439C186.841 109.323 187.201 111.627 186.07 113.33C185.703 113.848 185.259 114.306 184.753 114.689C184.473 114.927 184.167 115.133 183.841 115.303C183.503 115.49 183.105 115.539 182.732 115.44C182.251 115.276 181.961 114.755 181.913 114.253C181.896 114.088 181.896 113.922 181.913 113.757L181.927 113.794C182.125 114.273 182.449 114.776 182.96 114.86C183.152 114.874 183.345 114.848 183.526 114.784C183.707 114.72 183.873 114.619 184.014 114.488C184.767 113.883 185.205 112.981 185.623 112.111C185.949 111.483 186.208 110.823 186.394 110.14C186.485 109.752 186.528 109.355 186.622 108.966C187.055 107.08 188.531 105.541 188.858 103.63C188.884 103.499 188.89 103.364 188.876 103.23C188.833 103.056 188.767 102.889 188.68 102.733C188.6 102.556 188.542 102.37 188.506 102.18C188.963 102.344 189.446 102.598 189.59 103.059C189.649 103.316 189.636 103.583 189.554 103.833Z" fill="black"/>
<path opacity="0.1" d="M186.109 100.559C185.897 101.111 185.542 101.597 185.08 101.965C184.43 102.461 183.67 102.79 182.864 102.925C182.489 103.02 182.096 103.016 181.724 102.911C181.217 102.735 180.852 102.26 180.334 102.123C179.965 102.023 179.568 102.112 179.193 102.057C178.52 101.963 177.998 101.449 177.455 101.038C175.792 99.7871 173.608 99.3829 171.945 98.1315C171.871 98.086 171.81 98.0224 171.767 97.9466C171.735 97.8646 171.724 97.7761 171.733 97.6886C171.739 96.9295 171.91 96.1809 172.233 95.4942C172.497 95.015 172.812 94.5656 173.173 94.1538C174.662 92.327 176.159 90.4865 177.943 88.9452C178.691 88.299 179.508 87.6961 180.453 87.4039C180.977 87.2417 182.013 87.0887 182.652 87.3628C182.558 87.4272 182.473 87.504 182.399 87.5911C182.196 87.8756 182.042 88.192 181.943 88.5273C180.982 91.0277 178.411 92.311 176.358 94.0145L174.482 95.5695C174.227 95.7819 173.944 96.0924 174.069 96.4007C174.156 96.5566 174.295 96.6765 174.462 96.7386C175.552 97.2775 176.832 97.4945 177.731 98.3165C178.06 98.6179 178.374 99.0153 178.819 99.0381C179.054 99.0243 179.285 98.9726 179.504 98.8851C179.847 98.7921 180.207 98.7801 180.556 98.8498C180.905 98.9195 181.232 99.0692 181.514 99.287C181.673 99.4429 181.859 99.5704 182.061 99.6638C182.231 99.7086 182.408 99.7195 182.581 99.6957C183.067 99.6615 183.583 99.6181 184.019 99.835C184.454 100.052 184.813 100.563 185.321 100.6C185.575 100.618 185.871 100.531 186.109 100.559Z" fill="black"/>
<path d="M165.126 69.5678C164.692 69.8463 164.232 70.1615 164.054 70.6455C163.908 71.0406 163.976 71.4927 163.8 71.8763C163.625 72.2599 163.23 72.5271 163.143 72.9381C163.082 73.2373 163.203 73.5524 163.143 73.8515C163.092 74.0071 163.05 74.1657 163.018 74.3265C162.995 74.6667 163.287 74.943 163.572 75.1325C164.179 75.5278 164.871 75.775 165.591 75.8543C166.311 75.9336 167.039 75.8428 167.718 75.5892C168.327 75.3609 168.877 74.9887 169.461 74.6964C170.03 74.3681 170.682 74.2097 171.338 74.2397C171.715 74.2808 172.075 74.4178 172.452 74.468C172.638 74.5048 172.83 74.4958 173.011 74.4417C173.193 74.3876 173.359 74.29 173.494 74.1575C173.611 73.9969 173.689 73.8118 173.722 73.6163C174.04 72.3627 173.896 71.0337 173.595 69.7733C173.294 68.5128 172.837 67.3003 172.516 66.0467C172.287 65.1173 172.112 64.1651 171.731 63.286C171.35 62.4069 170.709 61.5894 169.812 61.2537C169.741 61.219 169.661 61.2085 169.584 61.224C169.526 61.2481 169.475 61.2857 169.436 61.3336C168.726 62.0859 168.192 62.9857 167.87 63.9687C167.512 65.0625 167.414 66.2225 167.086 67.3208C166.944 67.7775 166.762 68.3895 166.401 68.7389C166.041 69.0882 165.534 69.3052 165.126 69.5678Z" fill="#3F3D56"/>
<path opacity="0.1" d="M173.729 73.6095C173.691 73.8056 173.609 73.9906 173.49 74.1507C173.354 74.2837 173.189 74.3813 173.007 74.4351C172.825 74.4888 172.633 74.497 172.447 74.459C172.073 74.4133 171.712 74.274 171.336 74.2306C170.679 74.2002 170.028 74.3587 169.458 74.6873C168.874 74.9796 168.318 75.3427 167.713 75.5778C166.829 75.9135 165.862 75.9685 164.946 75.7354C164.459 75.6129 163.996 75.4091 163.577 75.1326C163.289 74.9453 163 74.6759 163.022 74.3265C163.054 74.1665 163.096 74.0086 163.148 73.8538C163.207 73.5547 163.088 73.2396 163.148 72.9405C163.234 72.5294 163.631 72.2554 163.805 71.8764C163.978 71.4973 163.912 71.0429 164.056 70.6479C164.234 70.1615 164.697 69.8487 165.13 69.5678C165.564 69.2869 166.079 69.0723 166.426 68.732C166.471 68.6791 166.511 68.6226 166.547 68.5631C166.797 68.177 166.981 67.7517 167.09 67.3049C167.426 66.2043 167.517 65.0465 167.873 63.9505C168.196 62.9683 168.731 62.0693 169.44 61.3177C169.478 61.2686 169.528 61.2308 169.586 61.2081C169.663 61.1924 169.743 61.202 169.814 61.2355C170.709 61.5734 171.35 62.3909 171.733 63.27C172.116 64.1491 172.278 65.0968 172.518 66.0284C172.837 67.282 173.296 68.4991 173.597 69.7573C173.898 71.0155 174.046 72.3536 173.729 73.6095Z" fill="black"/>
<path opacity="0.1" d="M180.514 45.7605C179.442 46.1017 178.281 46.0339 177.255 45.5703C176.229 45.1066 175.41 44.2798 174.957 43.2487C174.974 43.0348 175.005 42.822 175.048 42.6117C175.276 41.5613 176.253 41.9449 177.024 42.2235C177.952 42.5253 178.85 42.9144 179.704 43.3857C179.965 43.5201 180.191 43.7122 180.366 43.9475C180.704 44.4521 180.569 45.1235 180.514 45.7605Z" fill="black"/>
<path d="M179.136 45.7467C181.656 45.7467 183.699 43.702 183.699 41.1798C183.699 38.6575 181.656 36.6129 179.136 36.6129C176.616 36.6129 174.573 38.6575 174.573 41.1798C174.573 43.702 176.616 45.7467 179.136 45.7467Z" fill="#BE6F72"/>
<path opacity="0.1" d="M191.518 75.3084C191.518 75.6874 191.005 75.8085 190.624 75.7879C189.255 75.708 187.915 75.3312 186.56 75.4454C184.847 75.6007 183.273 76.5483 181.555 76.6351C180.893 76.6693 180.22 76.5711 179.568 76.6921C178.723 76.8497 177.97 77.3635 177.11 77.4366C176.364 77.5005 175.627 77.2196 174.881 77.2493C174.36 77.2804 173.851 77.4254 173.392 77.674C173.442 77.1905 173.658 76.7393 174.003 76.3976C174.548 75.861 175.324 76.0003 176.077 75.8724C176.828 75.7101 177.561 75.4754 178.267 75.1714C180.247 74.3907 182.331 73.9082 184.452 73.7396C186.582 73.57 188.723 73.9089 190.696 74.7284C190.984 74.8448 191.254 74.9983 191.502 75.1851C191.514 75.2249 191.52 75.2667 191.518 75.3084Z" fill="black"/>
<path d="M177.026 49.519L175.178 48.8339L174.398 48.5462C174.08 48.4129 173.745 48.3237 173.403 48.2813C172.509 48.2128 171.667 48.8088 171.19 49.5692C170.713 50.3296 170.533 51.2361 170.38 52.1198C170.17 53.3285 169.992 54.5418 169.846 55.7597C169.689 56.8594 169.609 57.9688 169.607 59.0798C169.659 61.9067 170.257 64.6948 170.914 67.4464C171.236 68.6663 171.479 69.9058 171.642 71.157C171.696 71.673 171.722 72.1914 171.776 72.7097C171.836 73.292 171.931 73.8674 172.027 74.4452L172.577 77.7265C173.262 77.2401 174.04 76.8131 174.881 76.788C175.627 76.7606 176.367 77.0392 177.11 76.9752C177.966 76.9044 178.723 76.3907 179.568 76.2331C180.22 76.1121 180.893 76.208 181.557 76.176C183.273 76.0892 184.849 75.1393 186.56 74.9863C187.918 74.863 189.266 75.2466 190.626 75.3266C191.005 75.3494 191.518 75.2284 191.518 74.847C191.518 74.5822 191.253 74.4063 191.023 74.2739C189.937 73.6193 188.903 72.8811 187.931 72.0658C187.033 71.3534 186.12 70.6226 185.502 69.659C184.012 67.3413 184.523 64.2061 183.252 61.7606C182.219 59.774 183.252 57.1708 183.252 54.9308C183.252 53.8141 183.252 52.6838 182.99 51.5992C182.826 50.9926 182.621 50.3975 182.378 49.8181L181.491 47.5689C181.472 47.5032 181.436 47.4439 181.386 47.3976C181.326 47.3565 181.255 47.335 181.183 47.336C180.65 47.304 180.124 47.4726 179.709 47.8087C179.291 48.1489 179.025 48.6376 178.614 48.9915C178.164 49.382 177.585 49.7245 177.026 49.519Z" fill="#E3E8F4"/>
<path d="M180.008 48.2219C180.154 47.5963 180.311 46.9455 180.729 46.4568C181.146 45.9682 181.908 45.7101 182.447 46.0595C183.058 46.4568 183.083 47.3748 183.606 47.8863C184.062 48.3247 184.746 48.3589 185.367 48.416C186.483 48.5177 187.579 48.7759 188.623 49.1833C188.826 49.2464 189.012 49.3576 189.163 49.5075C189.449 49.8318 189.392 50.3296 189.533 50.7337C189.727 51.2544 190.263 51.5855 190.471 52.1038C190.699 52.6792 190.471 53.3232 190.279 53.9146C189.935 54.9764 189.718 56.0793 189.382 57.1457C189.047 58.212 188.57 59.2624 187.785 60.0662C187.439 60.4224 186.923 60.7512 186.467 60.5389L186.291 61.8062C186.24 62.074 186.24 62.349 186.291 62.6168C186.318 62.7508 186.381 62.8746 186.475 62.9739C186.569 63.0733 186.688 63.1442 186.82 63.1786C186.855 63.3749 187.062 63.4685 187.231 63.5759C187.356 63.6612 187.462 63.7704 187.544 63.8972C187.626 64.024 187.683 64.1658 187.709 64.3145C187.736 64.4632 187.734 64.6157 187.701 64.7633C187.669 64.9109 187.607 65.0506 187.521 65.1743C187.377 65.3684 187.165 65.5214 187.096 65.752C186.994 66.0854 187.238 66.437 187.534 66.6197C187.831 66.8024 188.18 66.8869 188.481 67.0627C189.106 67.4235 189.442 68.1336 189.656 68.8233C189.816 69.3439 189.948 69.9079 190.341 70.2869C190.491 70.4308 190.671 70.5404 190.815 70.6911C191.064 70.9853 191.208 71.3541 191.224 71.7392C191.286 72.2165 191.181 72.7007 190.927 73.1093C190.471 73.7624 189.62 73.9565 188.874 74.251C187.662 74.7488 186.665 75.6394 185.597 76.3975C185.163 76.748 184.65 76.9892 184.103 77.1008C183.364 77.199 182.636 76.8724 181.892 76.8427C181.447 76.8469 181.005 76.9052 180.574 77.0163L179.205 77.3131C179.278 76.2513 178.694 75.1872 178.367 74.1757C177.751 72.2713 177.637 70.2344 177.783 68.2387C177.929 66.2429 178.336 64.2746 178.737 62.3154C179.018 60.9453 178.99 59.5136 179.422 58.1824C179.825 56.9013 180.403 55.6706 180.615 54.337C180.962 52.1792 179.52 50.3501 180.008 48.2219Z" fill="#3F3D56"/>
<path d="M190.386 52.444C190.512 52.676 190.601 52.9265 190.649 53.1861C190.754 53.5884 190.952 53.9605 191.226 54.2731C191.455 54.4757 191.659 54.7057 191.833 54.9581C192.043 55.3554 191.963 55.8395 192.061 56.2734C192.175 56.746 192.506 57.1571 192.554 57.6434C192.555 57.7828 192.568 57.9218 192.592 58.059C192.741 58.6116 193.553 58.7441 193.733 59.2967C193.854 59.6552 193.647 60.0456 193.685 60.4224C193.714 60.5389 193.721 60.6596 193.706 60.7786C193.654 60.9132 193.564 61.0293 193.446 61.112C192.691 61.834 192.168 62.765 191.945 63.7859C191.725 64.8013 191.609 65.8365 191.6 66.8755L190.708 65.6949C190.614 65.5517 190.493 65.4277 190.352 65.3296C190.238 65.2611 190.106 65.2268 189.989 65.1583C189.652 64.9665 189.519 64.56 189.389 64.1947C189.028 63.1833 188.487 62.2457 187.792 61.4271C187.429 61.0001 187.007 60.5708 186.928 60.016C186.904 59.7611 186.917 59.5041 186.969 59.2533C187.197 57.7576 187.441 56.2254 188.169 54.8987C188.509 54.2776 188.949 53.7159 189.275 53.0857C189.494 52.6678 189.802 51.5809 190.386 52.444Z" fill="#3F3D56"/>
<path d="M167.88 53.8805C167.884 54.0727 167.835 54.2624 167.738 54.4285C167.651 54.5297 167.537 54.6046 167.41 54.6449C167.283 54.6852 167.147 54.6893 167.017 54.6569C166.757 54.5916 166.513 54.4768 166.296 54.3189C165.66 53.917 165.025 53.5144 164.389 53.111C164.034 52.8968 163.692 52.662 163.365 52.4077C162.864 51.9848 162.411 51.5094 162.012 50.9896C160.903 49.6196 159.922 48.133 158.687 46.8794C158.352 46.5369 158.003 46.2081 157.679 45.8496C157.236 45.3314 156.829 44.7836 156.461 44.2101C156.105 43.6826 155.735 43.098 155.797 42.4678C155.833 42.1116 156.004 41.7827 156.055 41.4288C156.105 41.0749 155.97 40.6433 155.628 40.5474C155.588 40.5372 155.546 40.5303 155.505 40.5268C155.437 40.5197 155.371 40.5051 155.306 40.4835C154.989 40.351 155.037 39.8601 155.265 39.602C155.493 39.344 155.831 39.2002 156.039 38.917C156.135 38.749 156.244 38.588 156.363 38.4352C156.515 38.3041 156.698 38.2124 156.894 38.168C158.21 37.7799 159.602 37.7273 160.944 38.015C161.172 38.0653 161.432 38.1566 161.501 38.3781C161.528 38.486 161.528 38.599 161.501 38.7069C161.4 39.1572 161.342 39.6159 161.327 40.077C161.327 40.1731 161.332 40.2692 161.343 40.3647C161.45 41.3329 162.078 42.1527 162.689 42.9085C163.415 43.8082 164.152 44.701 164.891 45.5915C165.291 46.1076 165.737 46.5854 166.226 47.0187C166.682 47.3978 167.273 47.7037 167.629 48.1901C167.918 48.5829 167.825 49.1195 167.857 49.5922C167.963 51.0194 167.971 52.4522 167.88 53.8805Z" fill="#3F3D56"/>
<path d="M196.854 63.4069C197.08 63.1877 197.283 62.9467 197.461 62.6876C197.653 62.3666 197.806 62.024 197.917 61.6669L199.241 57.9107C199.451 57.317 199.66 56.721 199.925 56.1433C200.199 55.5199 200.523 54.9193 200.822 54.3165C201.59 52.7301 202.185 51.0648 202.594 49.35C202.666 49.1144 202.691 48.8667 202.665 48.6216C202.601 48.2265 202.302 47.9182 202.017 47.6374C201.73 47.3274 201.404 47.0571 201.045 46.8336C200.865 46.7216 200.665 46.6466 200.456 46.6129C200.247 46.5792 200.033 46.5875 199.827 46.6372C199.243 46.8085 198.876 47.4068 198.741 48.0073C198.606 48.6079 198.657 49.2221 198.6 49.8341C198.517 50.7109 198.216 51.5581 198.143 52.4372C198.104 52.9464 198.143 53.4602 198.082 53.9671C197.969 54.6328 197.737 55.2726 197.397 55.8555C196.656 57.2441 195.654 58.4768 194.447 59.4862C194.117 59.7306 193.819 60.0169 193.562 60.338C193.348 60.6591 193.202 61.0215 193.135 61.4021C192.984 61.9815 193.05 62.5964 193.32 63.1306C193.692 63.7654 194.406 64.044 195.088 64.1856C196.01 64.3774 196.222 64.0623 196.854 63.4069Z" fill="#BE6F72"/>
<path d="M179.164 34.5624C179.36 34.193 179.661 33.8897 180.029 33.6903C180.396 33.4909 180.814 33.4043 181.231 33.4413C181.65 33.5156 182.04 33.706 182.357 33.9909C182.674 34.2759 182.905 34.6439 183.024 35.0534C183.131 35.3936 183.175 35.7704 183.362 36.0627C183.644 36.5034 184.169 36.6312 184.562 36.9509C184.796 37.1688 184.984 37.4313 185.116 37.723C185.248 38.0147 185.32 38.3298 185.328 38.6498C185.35 39.3034 185.247 39.9552 185.025 40.5702C184.93 40.8326 184.854 41.1012 184.797 41.374C184.751 41.6389 184.746 41.9083 184.705 42.1732C184.655 42.5167 184.536 42.8465 184.356 43.1434C184.176 43.4402 183.939 43.6981 183.658 43.9018C183.578 43.9671 183.478 44.0033 183.375 44.0045C183.197 43.984 183.088 43.7762 183.022 43.5889C182.659 42.5408 182.746 41.2598 182.077 40.4241C181.773 40.0869 181.406 39.813 180.996 39.618C180.829 39.5101 180.64 39.4393 180.444 39.4102C180.154 39.4258 179.876 39.5276 179.645 39.7025C179.164 40.0258 178.629 40.2623 178.066 40.4012C177.785 40.4678 177.493 40.4708 177.211 40.41C176.929 40.3492 176.664 40.226 176.435 40.0496C176.12 39.7893 175.89 39.3988 175.541 39.1956C175.192 38.9923 174.827 39.0038 174.482 38.8645C174.263 38.771 174.067 38.6286 173.911 38.4482C173.755 38.2677 173.642 38.0539 173.581 37.8231C173.519 37.5923 173.512 37.3506 173.558 37.1163C173.604 36.8821 173.703 36.6615 173.848 36.4714C174.076 36.1974 174.414 36.0421 174.617 35.7384C174.879 35.3457 174.856 34.8068 174.982 34.3364C175.056 34.0388 175.2 33.7632 175.402 33.5324C175.604 33.3017 175.858 33.1225 176.143 33.0097C176.419 32.9157 176.716 32.8977 177.002 32.9576C177.287 33.0174 177.552 33.1529 177.767 33.3499C177.996 33.5554 178.178 33.8203 178.402 34.035C178.622 34.2464 178.893 34.3991 179.188 34.4789C179.483 34.5587 179.793 34.5631 180.09 34.4916" fill="#3F3D56"/>
<path opacity="0.1" d="M182.914 68.1725C182.782 68.2909 182.688 68.4466 182.644 68.6193C182.601 68.792 182.611 68.9737 182.673 69.1407C182.723 69.248 185.077 68.7936 185.326 68.7593C185.947 68.6703 187.035 68.7137 187.452 68.1451C188.196 67.1381 185.892 67.3619 185.47 67.3984C184.667 67.4669 183.526 67.5765 182.914 68.1725Z" fill="black"/>
<path d="M161.496 38.7161C161.395 39.1663 161.337 39.625 161.323 40.0861C160.638 40.2254 159.926 39.9971 159.269 39.7687L157.383 39.1248C157.268 39.0514 157.129 39.0245 156.995 39.0495C156.862 39.0745 156.742 39.1496 156.662 39.2595C156.358 39.5747 155.941 40.1729 155.521 40.5269C155.453 40.5197 155.387 40.5051 155.322 40.4835C155.005 40.351 155.053 39.8601 155.281 39.6021C155.509 39.344 155.847 39.2002 156.055 38.917C156.151 38.749 156.26 38.588 156.379 38.4352C156.531 38.3041 156.714 38.2124 156.91 38.168C158.226 37.7799 159.618 37.7273 160.96 38.015C161.188 38.0653 161.448 38.1566 161.517 38.3781C161.539 38.4907 161.532 38.607 161.496 38.7161Z" fill="#3F3D56"/>
<path opacity="0.1" d="M161.496 38.7161C161.395 39.1663 161.337 39.625 161.323 40.0861C160.638 40.2254 159.926 39.9971 159.269 39.7687L157.383 39.1248C157.268 39.0514 157.129 39.0245 156.995 39.0495C156.862 39.0745 156.742 39.1496 156.662 39.2595C156.358 39.5747 155.941 40.1729 155.521 40.5269C155.453 40.5197 155.387 40.5051 155.322 40.4835C155.005 40.351 155.053 39.8601 155.281 39.6021C155.509 39.344 155.847 39.2002 156.055 38.917C156.151 38.749 156.26 38.588 156.379 38.4352C156.531 38.3041 156.714 38.2124 156.91 38.168C158.226 37.7799 159.618 37.7273 160.96 38.015C161.188 38.0653 161.448 38.1566 161.517 38.3781C161.539 38.4907 161.532 38.607 161.496 38.7161Z" fill="black"/>
<path opacity="0.1" d="M178.755 82.0674C179.084 82.177 179.44 82.3368 179.552 82.6656L176.91 81.9943L175.541 81.6449C175.299 81.5833 174.432 81.5125 174.272 81.3229C174.044 81.0444 174.854 81.2362 175 81.2567C175.443 81.3229 175.885 81.3914 176.326 81.4714C177.156 81.6198 177.955 81.8641 178.755 82.0674Z" fill="black"/>
<path opacity="0.1" d="M179.78 84.4079C179.552 84.2549 178.897 84.2731 178.616 84.2069C178.205 84.1087 177.802 83.9786 177.398 83.853C176.579 83.5858 175.767 83.2821 174.925 83.0857C174.77 83.0515 174.24 83.0424 174.265 82.846C174.29 82.6496 174.795 82.5811 174.92 82.572C175.666 82.5172 176.597 82.8665 177.291 83.1154C178.175 83.4323 179.012 83.8671 179.78 84.4079Z" fill="black"/>
<path opacity="0.1" d="M178.105 79.9802C177.268 79.7519 176.508 79.2312 175.646 79.1308C175.421 79.1393 175.2 79.0717 175.018 78.9389C174.917 78.8392 174.846 78.7124 174.815 78.5736C175.392 78.5439 176.063 78.7882 176.588 79.0189C176.877 79.1429 177.155 79.2911 177.418 79.4619C177.61 79.5783 177.898 79.914 178.105 79.9802Z" fill="black"/>
<path d="M194.066 59.5343C193.925 60.4836 194.13 61.4522 194.643 62.2628C195.157 63.0734 195.945 63.6717 196.863 63.9482C196.752 64.4894 196.193 64.7885 195.798 65.1744C195.241 65.7156 194.954 66.5262 194.297 66.9372C193.564 67.3939 192.622 67.2158 191.787 67.024C191.711 67.0155 191.641 66.9788 191.591 66.9213C191.574 66.8939 191.561 66.8638 191.554 66.8322C191.278 65.8206 191.098 64.7406 191.381 63.7267C191.609 62.8636 192.157 62.1283 192.595 61.3656C193.033 60.6029 193.074 59.7855 194.066 59.5343Z" fill="#3F3D56"/>
<path d="M173.668 46.4409C172.785 46.5052 171.927 46.7666 171.158 47.2059C170.647 47.4981 170.122 47.8909 169.538 47.8201C169.194 47.7813 168.854 47.5918 168.518 47.6831C168.329 47.7594 168.153 47.8641 167.996 47.9937C167.916 48.0573 167.821 48.0991 167.72 48.1151C167.62 48.1311 167.517 48.1207 167.421 48.085L167.193 51.2453C167.106 52.4464 167.022 53.6726 167.309 54.844C167.458 55.4423 167.784 55.9857 167.82 56.5931C167.857 57.2005 167.802 57.8239 167.845 58.4382C167.886 59.0067 168.012 59.5662 168.044 60.1348C168.108 61.208 167.843 62.2721 167.588 63.3156C167.202 64.8547 166.969 66.428 166.219 67.8209C166.009 68.2068 165.762 68.5995 165.762 69.038C165.762 69.0928 165.762 69.1453 165.776 69.1978C165.548 69.3234 165.336 69.4421 165.142 69.5654C164.708 69.8463 164.245 70.1591 164.067 70.6455C163.924 71.0405 163.99 71.4927 163.816 71.874C163.643 72.2553 163.246 72.5271 163.159 72.9381C163.098 73.2372 163.216 73.5523 163.159 73.8515C163.108 74.0063 163.066 74.1641 163.034 74.3242C163.011 74.6667 163.301 74.943 163.588 75.1302C164.007 75.4068 164.47 75.6106 164.957 75.733L166.319 70.3213C167.561 68.0232 168.594 65.6182 169.406 63.1352C169.638 62.3236 169.937 61.5324 170.298 60.7696C170.556 60.338 170.785 59.8894 170.982 59.4269C171.19 58.8515 171.211 58.2281 171.311 57.6207C171.43 56.9118 171.609 56.2143 171.847 55.5359C172.093 54.8029 172.379 54.0722 172.429 53.3027C172.504 52.2021 172.105 51.0398 172.529 50.0214C172.709 49.6402 172.944 49.2871 173.225 48.9733C173.814 48.2517 174.35 47.4959 174.938 46.7743C174.633 46.4478 174.124 46.4135 173.668 46.4409Z" fill="#3F3D56"/>
<g opacity="0.1">
<path opacity="0.1" d="M180.097 33.8111L179.812 33.8316L179.78 33.8545C179.887 33.8501 179.993 33.8356 180.097 33.8111Z" fill="black"/>
<path opacity="0.1" d="M185.317 38.5515C185.269 39.0055 185.171 39.4527 185.025 39.885C184.931 40.1474 184.854 40.416 184.797 40.6888C184.751 40.9537 184.746 41.2231 184.705 41.488C184.655 41.8315 184.536 42.1613 184.356 42.4582C184.176 42.7551 183.939 43.0129 183.658 43.2166C183.578 43.2819 183.479 43.3181 183.375 43.3193C183.197 43.2988 183.088 43.091 183.022 42.9038C182.659 41.8556 182.746 40.5746 182.077 39.7389C181.773 39.4017 181.406 39.1279 180.996 38.9328C180.829 38.8249 180.64 38.7541 180.444 38.725C180.154 38.7406 179.876 38.8424 179.645 39.0173C179.164 39.3406 178.629 39.5771 178.066 39.7161C177.785 39.7827 177.493 39.7857 177.211 39.7248C176.929 39.664 176.664 39.5408 176.435 39.3644C176.12 39.1041 175.89 38.7136 175.541 38.5104C175.192 38.3072 174.827 38.3186 174.482 38.1793C174.267 38.0873 174.075 37.948 173.921 37.7717C173.767 37.5954 173.655 37.3866 173.592 37.1609C173.584 37.1324 173.578 37.1034 173.574 37.0741C173.517 37.329 173.523 37.594 173.592 37.8459C173.655 38.0716 173.767 38.2804 173.921 38.4567C174.075 38.633 174.267 38.7723 174.482 38.8643C174.827 39.0036 175.215 39.0059 175.541 39.1954C175.867 39.385 176.12 39.7891 176.435 40.0494C176.664 40.2259 176.929 40.349 177.211 40.4099C177.493 40.4707 177.785 40.4677 178.066 40.4011C178.629 40.2621 179.164 40.0256 179.645 39.7023C179.876 39.5274 180.154 39.4256 180.444 39.4101C180.64 39.4391 180.829 39.51 180.996 39.6179C181.4 39.8167 181.762 40.0928 182.061 40.4308C182.73 41.2665 182.643 42.5475 183.006 43.5956C183.072 43.7852 183.181 43.9907 183.359 44.0112C183.469 44.0118 183.575 43.9729 183.658 43.9016C183.94 43.6974 184.179 43.4385 184.359 43.1404C184.539 42.8423 184.658 42.511 184.708 42.1662C184.749 41.9013 184.753 41.6319 184.799 41.367C184.857 41.0942 184.933 40.8256 185.027 40.5632C185.249 39.9482 185.352 39.2964 185.331 38.6428C185.326 38.6154 185.321 38.5835 185.317 38.5515Z" fill="black"/>
</g>
<path d="M170.882 56.874L170.727 58.9588C170.704 59.2419 170.163 65.9827 166.175 73.8606C162.753 80.6173 156.094 89.4178 143.52 94.3637C142.539 94.7519 141.521 95.1142 140.465 95.4506L139.288 91.7514C142.244 90.8205 145.091 89.5742 147.78 88.034C154.188 84.3302 159.171 79.044 162.646 72.2416C164.489 68.6199 165.803 64.7517 166.547 60.7558H152.242V56.874H170.882Z" fill="#6C63FF"/>
<path opacity="0.1" d="M141.98 94.366C154.551 89.42 161.213 80.6219 164.633 73.8651C168.621 65.9872 169.164 59.251 169.185 58.9633L169.34 56.8785H170.937L170.782 58.9633C170.761 59.2464 170.218 65.9872 166.23 73.8651C162.808 80.6219 156.148 89.42 143.577 94.366C142.596 94.7542 141.577 95.1172 140.52 95.4552L140.365 94.9688C140.916 94.7724 141.454 94.5715 141.98 94.366Z" fill="white"/>
<path d="M116.811 91.7514L115.634 95.4506C114.577 95.1127 113.558 94.7496 112.577 94.3614C100.006 89.4155 93.344 80.6173 89.9241 73.8606C85.936 65.9827 85.3931 59.2465 85.3725 58.9588L85.2174 56.874H103.848V60.7558H89.5408C90.2886 64.7522 91.6063 68.6203 93.4535 72.2416C96.9282 79.044 101.909 84.3302 108.317 88.0317C111.007 89.5736 113.855 90.8207 116.811 91.7514Z" fill="#6C63FF"/>
<path opacity="0.1" d="M114.115 94.366C101.544 89.42 94.8817 80.6219 91.4618 73.8651C87.4738 65.9872 86.9308 59.251 86.9103 58.9633L86.7551 56.8785H85.1581L85.3132 58.9633C85.3338 59.2464 85.8768 65.9872 89.8648 73.8651C93.287 80.6219 99.9466 89.42 112.517 94.366C113.499 94.7542 114.518 95.1172 115.575 95.4552L115.73 94.9688C115.181 94.7724 114.642 94.5715 114.115 94.366Z" fill="white"/>
<path d="M149.571 127.51V148.443H106.526V127.51L107.895 125.684C121.844 120.728 124.671 107.806 125.234 102.694C125.318 101.987 125.366 101.277 125.378 100.566H130.701C130.713 101.277 130.761 101.987 130.844 102.694C131.417 107.806 134.244 120.733 148.184 125.684L149.571 127.51Z" fill="#6C63FF"/>
<path opacity="0.1" d="M149.571 127.51H106.526V130.136H149.571V127.51Z" fill="black"/>
<path opacity="0.1" d="M110.177 125.684C124.126 120.728 126.952 107.806 127.516 102.694C127.6 101.987 127.648 101.277 127.66 100.566H125.378C125.366 101.277 125.318 101.987 125.234 102.694C124.662 107.806 121.835 120.733 107.895 125.684L106.526 127.51V148.443H108.808V127.51L110.177 125.684Z" fill="white"/>
<path opacity="0.1" d="M99.9877 56.874H103.848V60.7558H100.33C100.191 59.4771 100.077 58.1831 99.9877 56.874Z" fill="black"/>
<path opacity="0.1" d="M116.811 91.7515L115.634 95.4507C114.577 95.1127 113.558 94.7497 112.577 94.3615C110.963 92.389 109.537 90.2699 108.317 88.0317C111.007 89.5736 113.855 90.8207 116.811 91.7515Z" fill="black"/>
<path opacity="0.1" d="M139.286 91.7515C142.241 90.8206 145.088 89.5742 147.778 88.034C146.557 90.2724 145.131 92.3923 143.518 94.366C142.537 94.7542 141.519 95.1165 140.463 95.453L139.286 91.7515Z" fill="black"/>
<path opacity="0.1" d="M156.107 56.874C156.017 58.1831 155.903 59.4771 155.765 60.7558H152.249V56.874H156.107Z" fill="black"/>
<path opacity="0.1" d="M130.854 102.694C129.001 103.053 127.096 103.053 125.243 102.694C125.327 101.987 125.375 101.277 125.387 100.566H130.71C130.722 101.277 130.77 101.987 130.854 102.694Z" fill="black"/>
<path d="M100.444 50.4438C100.542 79.2291 112.862 102.507 128.05 102.507C143.237 102.507 155.555 79.2291 155.655 50.4438H100.444Z" fill="#6C63FF"/>
<path opacity="0.1" d="M105.349 50.4438H100.444C100.542 79.2291 112.862 102.507 128.05 102.507C128.872 102.505 129.692 102.436 130.502 102.299C116.462 99.9514 105.443 77.6626 105.349 50.4438Z" fill="white"/>
<path d="M142.688 135.523H113.41V143.058H142.688V135.523Z" fill="#3F3D56"/>
<path opacity="0.1" d="M114.778 136.551H142.688V135.523H113.41V143.058H114.778V136.551Z" fill="white"/>
<path d="M84.8296 78.2358C84.3025 78.06 81.1997 75.603 80.9648 74.4909C80.7298 73.3789 82.6051 63.0188 82.6051 63.0188C82.6051 63.0188 82.4317 63.0188 82.1488 62.9846V62.8179L82.5344 49.2085C82.5344 49.2085 84.1155 40.0747 81.129 40.6067C78.1426 41.1388 80.0157 49.2085 80.0157 49.2085C80.0157 49.2085 79.6757 53.305 79.4362 54.5335C79.208 55.7186 78.1631 60.5459 78.8749 62.0461C78.901 62.0994 78.9299 62.1512 78.9616 62.2014C78.9616 62.2014 79.0803 67.3505 77.7912 68.0539C76.5615 68.7229 76.0505 72.091 76.0071 72.3924L75.941 72.365C75.5738 72.1351 75.2514 71.8403 74.9896 71.495C74.9622 71.4608 74.9417 71.4242 74.9166 71.3877C75.756 70.4425 76.2084 69.2153 76.1834 67.951C76.1585 66.6867 75.658 65.4783 74.782 64.567C74.3746 64.1436 73.8968 63.7943 73.3698 63.5349C73.3544 63.0986 73.2512 62.6699 73.0663 62.2744C72.4731 61.0048 69.1878 59.3448 66.8539 59.3059C65.777 59.274 64.8941 59.58 64.5724 60.4225C64.4081 60.8496 64.4583 61.3359 64.3899 61.7789C64.253 62.6923 63.6667 63.407 62.9138 63.9756C62.6098 63.6359 62.2811 63.3192 61.9305 63.028C61.1685 62.4434 59.649 60.5162 59.649 60.5162C59.649 60.5162 54.9058 55.5999 54.5545 54.2526C54.2031 52.9054 49.4645 44.8151 48.4105 46.224C47.3565 47.6329 52.0403 53.7731 52.0403 53.7731C52.0403 53.7731 52.9301 56.0041 53.6145 56.7576C54.299 57.5111 59.5463 65.1379 59.5463 65.1379L59.7973 65.6585C58.6885 66.2431 57.6755 66.9875 57.3173 68.1475C56.7926 69.8555 57.9402 71.5727 58.7341 73.1711C60.281 76.2903 60.5023 80.2681 58.506 83.1178C56.7173 85.6342 53.6145 86.8307 50.7102 87.8765C52.1128 88.9789 53.8553 89.5578 55.6382 89.5138C54.9674 91.4593 52.5901 92.1032 50.5642 92.464C51.6274 93.487 53.1491 93.8592 54.6092 94.0852C55.3244 94.2071 56.049 94.2644 56.7744 94.2565H56.9523L57.1303 94.2428C57.3776 94.2264 57.6236 94.1951 57.8672 94.1492C58.9212 93.9345 59.9456 93.3591 60.484 92.4275C60.9403 91.6305 61.1 90.5436 61.9282 90.144C62.1438 90.0466 62.3762 89.9915 62.6126 89.9819H62.5875C62.7427 89.9819 62.9024 89.9819 63.0575 89.9819L66.5094 90.0161C66.6531 90.0161 66.8014 90.0161 66.9497 90.0161C67.9239 89.9933 68.9642 89.8243 69.4593 89.0183C69.663 88.6268 69.7701 88.1923 69.7719 87.7509C69.8449 86.6572 69.7719 85.5314 69.8015 84.4285C70.0958 86.4357 70.4038 89.564 69.6715 90.7194C69.0765 91.5949 68.3554 92.3775 67.5315 93.0417C67.3242 93.2159 67.1347 93.4102 66.9657 93.6217C66.8539 93.7016 66.7877 93.745 66.7877 93.745L66.717 93.9574C66.457 94.3521 66.2685 94.7896 66.1603 95.2498C66.1205 95.368 66.1057 95.4932 66.117 95.6174C66.1968 95.7796 65.5466 96.4486 65.736 96.7295C64.1116 98.6362 63.8036 101.525 63.8036 101.525L60.8376 106.032C59.3136 110.04 57.0322 110.451 57.0322 110.451C57.0322 110.451 51.673 106.852 51.527 106.676C51.381 106.5 49.3322 105.621 49.3322 105.621C49.0906 105.197 48.7219 104.86 48.2782 104.658C47.5755 104.365 47.5162 103.288 47.5162 103.288C47.4295 100.742 45.9351 100.547 45.9351 100.547C44.7305 100.445 43.8111 100.659 43.1038 101.052L42.8893 101.068C41.8536 101.153 40.6079 101.246 39.239 101.338C35.4312 101.589 34.5255 104.057 34.5255 104.057C34.5255 104.057 34.0578 104.585 34.6715 105.155C35.2852 105.726 39.2139 105.155 39.3804 105.142C39.081 105.174 38.7782 105.153 38.4861 105.08C39.1044 105.057 39.9554 105.034 40.6809 105.034H40.8566C40.8109 105.419 40.7888 105.807 40.7904 106.194C40.7904 106.925 42.8095 107.393 42.8095 107.393L48.958 112.874C48.958 112.874 52.8229 114.602 55.2823 117.089C57.7417 119.575 59.9159 117.429 59.9159 117.429C62.5191 116.785 70.0092 107.722 70.016 107.713C70.016 107.978 70.1734 116.792 70.4723 118.562C70.4842 118.651 70.5064 118.74 70.5384 118.824C70.8898 119.585 70.4198 121.663 70.2168 122.539C70.0873 123.273 70.0375 124.019 70.0685 124.763C70.0685 124.763 67.26 135.496 67.4927 136.439C67.7254 137.382 65.971 141.764 65.971 141.764V145.417L66.2767 145.401C66.2369 145.46 66.2003 145.521 66.1672 145.584L66.1466 145.623C66.1466 145.623 68.0197 146.032 69.2791 145.915C70.5384 145.799 72.7013 146.886 72.7013 146.886C72.7013 146.886 73.4336 147.233 75.6877 147.379C77.9418 147.525 77.9418 146.383 77.9418 146.383C77.684 144.828 74.1226 144.308 74.0131 144.292C73.7257 144.111 73.4564 143.915 73.2351 143.746L73.1895 143.709C73.2044 143.675 73.2174 143.64 73.2283 143.604C73.6093 142.052 71.5012 141.378 71.5012 141.378V140.999C72.8701 140.296 73.1416 135.468 73.1416 135.468C73.1416 135.468 75.1949 129.499 75.4824 128.504C75.7699 127.508 75.4824 126.017 75.4824 126.017L75.6877 124.729C75.6877 124.729 76.128 123.852 76.128 123.677C76.185 123.231 76.3564 122.808 76.6254 122.448C76.9471 122.067 76.2741 121.16 76.2741 121.16L76.8604 119.639V117.97L78.2293 111.914C78.2293 111.914 79.6643 104.861 79.167 102.552C78.6696 100.244 79.7533 99.07 79.7533 99.07C79.6556 99.1214 79.5551 99.1672 79.4521 99.207C79.5891 98.8901 79.7072 98.5653 79.8058 98.2343L82.8857 98.6156V98.6613H83.9968C83.9968 98.6613 83.6455 94.3227 83.6455 92.5736C83.6455 90.8245 84.8296 84.5473 84.8296 84.5473C84.8296 84.5473 85.3566 78.4116 84.8296 78.2358ZM71.1567 73.1711C71.1567 73.3423 71.1408 73.5204 71.1293 73.7031L71.0677 73.7967L70.9537 73.7008L70.8145 73.9178L70.7734 73.9383C70.4723 73.783 70.3172 72.8948 70.1004 73.0866L70.0708 73.1117C70.0228 73.0569 69.9749 73.0409 69.9247 73.0866L69.8791 73.1254C69.8791 73.0592 69.8791 72.9907 69.8791 72.9222C70.2965 73.0297 70.7257 73.0842 71.1567 73.0843C71.159 73.114 71.1567 73.1437 71.1567 73.1711ZM81.4005 93.3751H81.4667L81.3572 93.6628C81.3709 93.5669 81.3845 93.4733 81.4005 93.3751ZM70.1552 145.157L69.7354 145.052L69.9635 145.013L70.1757 145.152L70.2008 145.171L70.1552 145.157ZM74.4443 144.543C74.3051 144.47 74.1637 144.385 74.0268 144.298C74.0724 144.324 74.2527 144.417 74.4443 144.543Z" fill="url(#paint1_linear)"/>
<path d="M82.9154 89.0616L80.1525 96.2682H80.8233L78.2247 98.3415L82.9154 98.9261V89.0616Z" fill="#F86D70"/>
<path opacity="0.1" d="M82.9154 89.0616L80.1525 96.2682L79.4567 96.0809L78.2247 98.3415L82.9154 98.9261V89.0616Z" fill="black"/>
<path d="M78.5829 93.6718H82.9154L84.5056 80.5762H78.5829V93.6718Z" fill="#F86D70"/>
<path opacity="0.1" d="M78.5829 93.6718H82.9154L84.5056 80.5762H78.5829V93.6718Z" fill="black"/>
<path d="M70.1209 83.6773L71.0563 83.5197L73.2055 83.1544C73.2055 83.1544 79.6597 81.6975 80.9921 81.5788C81.7993 81.4721 82.5864 81.2475 83.3283 80.912C83.6774 80.7613 83.8987 80.6471 83.8987 80.6471L81.5739 76.3976L77.9669 73.7214C77.9669 73.7214 75.6854 73.235 74.7204 71.9061C74.505 71.6201 74.3648 71.2846 74.3126 70.9303C74.2603 70.5761 74.2978 70.2144 74.4215 69.8783C75.0101 68.0516 70.9058 71.6252 70.9058 71.6252C70.9058 71.6252 70.9445 72.4815 70.9058 73.573C70.9058 73.7876 70.8852 74.0114 70.8693 74.2397C70.8693 74.3904 70.8487 74.5412 70.8328 74.6964C70.7324 75.7811 70.527 76.8977 70.1209 77.5645C69.1285 79.1949 70.1209 83.6773 70.1209 83.6773Z" fill="#FBBEBE"/>
<path opacity="0.1" d="M70.9058 73.6643H70.997C71.1613 73.6643 71.2936 73.315 71.4533 73.299C72.7378 73.1757 73.9105 72.9062 74.7249 71.9951C74.5101 71.7093 74.3703 71.3743 74.318 71.0205C74.2658 70.6667 74.303 70.3054 74.4261 69.9697C75.0147 68.1429 70.9103 71.7143 70.9103 71.7143C70.9103 71.7143 70.9537 72.5728 70.9058 73.6643Z" fill="black"/>
<path d="M65.9093 68.4854C65.909 69.1428 66.0382 69.7938 66.2894 70.4012C66.5406 71.0086 66.909 71.5605 67.3734 72.0254C67.8379 72.4902 68.3893 72.8589 68.9962 73.1104C69.6031 73.3618 70.2535 73.491 70.9103 73.4907C71.0746 73.4907 71.2366 73.4908 71.3986 73.4679C72.3622 73.3733 73.2776 73.0008 74.0338 72.3955C74.79 71.7902 75.3543 70.9783 75.6584 70.0582C75.9624 69.1382 75.9931 68.1496 75.7466 67.2124C75.5001 66.2752 74.9871 65.4298 74.2699 64.7788C73.5527 64.1278 72.6621 63.6992 71.7062 63.545C70.7503 63.3907 69.7702 63.5176 68.8849 63.9101C67.9996 64.3025 67.2472 64.9438 66.719 65.756C66.1908 66.5682 65.9096 67.5163 65.9093 68.4854Z" fill="#FBBEBE"/>
<path d="M64.3739 60.8884C64.2097 61.3131 64.2598 61.7881 64.1937 62.2379C63.9496 63.8614 62.3001 64.8342 60.808 65.5147C59.3159 66.1951 57.6322 67.0012 57.1576 68.5699C56.6375 70.2665 57.7736 71.9677 58.563 73.5593C60.1007 76.6602 60.3197 80.6151 58.3349 83.4512C56.5713 85.963 53.4982 87.155 50.6053 88.2008C51.9976 89.2971 53.728 89.8736 55.499 89.8312C54.8351 91.7653 52.4738 92.4069 50.4615 92.7631C51.5178 93.7815 53.0305 94.1515 54.4792 94.3752C55.5355 94.5396 56.6192 94.647 57.6732 94.4346C58.7273 94.2222 59.7266 93.6491 60.2696 92.722C60.7259 91.9297 60.881 90.8496 61.7046 90.45C62.0764 90.3035 62.4769 90.2449 62.875 90.2787L66.2972 90.3153C67.3626 90.3153 68.6243 90.233 69.1741 89.3219C69.3769 88.9327 69.4833 88.5005 69.4844 88.0615C69.6327 85.8146 69.2015 83.4398 70.1255 81.3892C70.4038 80.7704 68.6174 79.7908 68.8045 79.1355C69.4479 76.8817 69.6099 75.1075 69.603 72.7623C69.603 70.947 70.7826 69.3828 71.7567 67.8506C72.7309 66.3184 73.5454 64.3844 72.7766 62.7403C71.9096 60.9067 65.3983 58.2419 64.3739 60.8884Z" fill="#3F3D56"/>
<path d="M68.93 144.499L69.8015 145.077L69.9361 145.166L69.9612 145.182L70.9947 145.867L73.4085 146.274L75.5303 146.127C75.5303 146.127 76.1417 144.849 75.1812 144.878C74.8736 144.863 74.5738 144.776 74.3051 144.625L74.1728 144.559C74.0336 144.486 73.8945 144.403 73.7576 144.317C73.4724 144.136 73.2032 143.94 72.9865 143.773C72.6671 143.527 72.4549 143.339 72.4549 143.339L68.93 144.499Z" fill="#FBBEBE"/>
<path opacity="0.1" d="M69.8129 145.077L69.9475 145.166L69.9726 145.182L71.0061 145.867L73.4199 146.274L75.5417 146.128C75.5417 146.128 76.1531 144.849 75.1926 144.878C74.885 144.863 74.5852 144.776 74.3165 144.625C74.4854 144.757 74.6268 144.901 74.6405 145.022C74.6793 145.349 73.0709 145.936 73.0709 145.936L70.8031 145.335C70.8031 145.335 70.4175 145.226 69.8905 145.089L69.8403 145.075L69.8129 145.077Z" fill="black"/>
<path d="M65.9344 145.634C65.9344 145.634 67.7938 146.041 69.0441 145.924C70.2943 145.808 72.448 146.886 72.448 146.886C72.448 146.886 73.1758 147.228 75.4139 147.374C77.6521 147.52 77.6521 146.383 77.6521 146.383C77.3965 144.837 73.8603 144.328 73.7508 144.305C73.7941 144.328 73.9789 144.422 74.166 144.547C74.4169 144.712 74.6884 144.926 74.709 145.1C74.7478 145.424 73.1393 146.013 73.1393 146.013L70.8716 145.415C70.8716 145.415 70.486 145.303 69.959 145.166H69.9088C69.1273 144.953 68.3333 144.789 67.5315 144.675C66.555 144.57 66.0554 145.401 65.9527 145.589C65.9452 145.603 65.9391 145.618 65.9344 145.634Z" fill="#3F3D56"/>
<path d="M36.6267 104.571L37.6146 105.329C37.6146 105.329 37.9021 105.315 38.331 105.302H38.4679C39.0816 105.279 39.928 105.256 40.6467 105.256C41.1112 105.235 41.5767 105.261 42.0361 105.334C42.5289 105.507 43.405 102.511 43.405 102.511L42.4148 102.283L42.0863 102.205L41.8581 102.15L41.0528 101.961L38.6116 102.239L36.8959 103.345L36.6267 104.571Z" fill="#FBBEBE"/>
<path opacity="0.1" d="M36.6267 104.571L37.6146 105.329C37.6146 105.329 37.9021 105.315 38.331 105.302C38.1341 105.226 37.9719 105.08 37.8747 104.893C37.2359 103.119 40.4048 102.36 40.4048 102.36L41.8809 102.296L42.1684 102.283H42.3965L42.068 102.205L41.8399 102.15L41.0345 101.961L38.5933 102.239L36.8777 103.345L36.6267 104.571Z" fill="black"/>
<path d="M34.6783 105.372C35.2761 105.925 39.1911 105.372 39.3553 105.359C39.0582 105.392 38.7575 105.371 38.4678 105.297C38.3244 105.271 38.1886 105.214 38.0702 105.129C37.9518 105.044 37.8538 104.934 37.7834 104.806C37.1446 103.029 40.3135 102.274 40.3135 102.274L41.7897 102.21L42.0748 102.196L45.6636 102.041L45.837 101.052C45.837 101.052 44.6711 101.162 42.8414 101.308C41.8125 101.392 40.5599 101.486 39.207 101.575C35.4266 101.826 34.5277 104.281 34.5277 104.281C34.5277 104.281 34.0692 104.806 34.6783 105.372Z" fill="#3F3D56"/>
<path d="M78.5852 62.5119C78.6095 62.5661 78.6385 62.6181 78.6719 62.6672L79.5434 63.9459L81.8112 64.1743L81.8363 63.2746L82.2173 49.7383C82.2173 49.7383 83.7869 40.6593 80.821 41.1822C77.8551 41.7051 79.7168 49.7383 79.7168 49.7383C79.7168 49.7383 79.3791 53.812 79.1419 55.0359C78.9114 56.2187 77.8779 61.0277 78.5852 62.5119Z" fill="#FBBEBE"/>
<path d="M73.4952 96.1334L74.1409 97.2386L75.585 99.7116C75.585 99.7116 78.2042 100.673 78.8749 99.94C79.2422 99.5403 79.6392 98.1452 79.9176 96.9715C80.1457 96.0215 80.2986 95.2201 80.2986 95.2201L73.4952 96.1334Z" fill="#FBBEBE"/>
<path opacity="0.1" d="M73.4952 96.1334L74.1409 97.2386C74.1814 97.2038 74.2181 97.1647 74.2504 97.1222C74.9805 96.1905 78.195 96.9235 79.9176 96.9829C80.1457 96.0329 80.2986 95.2314 80.2986 95.2314L73.4952 96.1334Z" fill="black"/>
<path opacity="0.1" d="M40.6466 105.251C41.1112 105.23 41.5767 105.256 42.0361 105.329C42.5288 105.502 43.4049 102.507 43.4049 102.507L42.0862 102.196L45.675 102.041L45.8484 101.052C45.8484 101.052 44.6826 101.162 42.8528 101.308C42.4747 101.526 42.1374 101.808 41.8558 102.141L41.8011 102.21C41.0368 103.148 40.7539 104.358 40.6466 105.251Z" fill="black"/>
<path opacity="0.1" d="M68.93 144.499L69.9361 145.166C71.4373 144.894 72.8085 144.467 72.9705 143.796C72.9712 143.785 72.9712 143.775 72.9705 143.764C72.6511 143.517 72.4389 143.33 72.4389 143.33L68.93 144.499Z" fill="black"/>
<path opacity="0.1" d="M65.955 145.595C67.2807 145.529 68.6015 145.388 69.911 145.171C69.1289 144.956 68.3342 144.79 67.5315 144.675C66.5573 144.57 66.0576 145.401 65.955 145.595Z" fill="black"/>
<path d="M40.7562 106.404C40.7562 107.133 42.7616 107.599 42.7616 107.599L48.8691 113.04C48.8691 113.04 52.7065 114.757 55.1477 117.23C57.5888 119.703 59.7425 117.58 59.7425 117.58C62.3297 116.94 69.781 107.918 69.781 107.918C69.781 107.918 69.9544 118.221 70.3034 118.977C70.6525 119.733 70.1871 121.799 69.984 122.674C69.8559 123.403 69.807 124.145 69.838 124.884C69.838 124.884 67.0478 135.564 67.2805 136.496C67.5132 137.427 65.7679 141.793 65.7679 141.793V145.431C65.7679 145.431 72.6009 145.168 72.9773 143.627C73.3538 142.086 71.2639 141.414 71.2639 141.414V141.035C72.6328 140.337 72.8906 135.537 72.8906 135.537C72.8906 135.537 74.928 129.6 75.2177 128.611C75.5075 127.622 75.2177 126.136 75.2177 126.136L75.4208 124.857C75.4208 124.857 75.8565 123.982 75.8565 123.809C75.9135 123.366 76.0841 122.945 76.3516 122.587C76.671 122.208 76.0026 121.306 76.0026 121.306L76.5843 119.792V118.135L77.9532 112.111C77.9532 112.111 79.3791 105.096 78.8841 102.797C78.389 100.497 79.4658 99.3348 79.4658 99.3348C77.1319 100.559 75.9547 97.8346 75.5691 96.6632C75.471 96.3618 75.4231 96.1608 75.4231 96.1608C75.4231 96.1608 72.2176 94.978 69.2334 95.2611C68.6274 95.3103 68.0301 95.4369 67.4562 95.6379C64.1412 96.8322 63.6187 101.778 63.6187 101.778L60.6825 106.261C59.1699 110.247 56.9021 110.654 56.9021 110.654C56.9021 110.654 51.5817 107.076 51.4266 106.9C51.2714 106.724 49.2455 105.852 49.2455 105.852C49.006 105.43 48.6395 105.094 48.1983 104.893C47.5002 104.6 47.4431 103.523 47.4431 103.523C47.3564 100.99 45.8735 100.783 45.8735 100.783C40.7265 100.353 40.7562 105.678 40.7562 106.404Z" fill="#3F3D56"/>
<path d="M70.3559 92.1763H73.4952V82.4282H70.3559V92.1763Z" fill="#F86D70"/>
<path opacity="0.1" d="M70.3559 92.1763H73.4952V82.4282H70.3559V92.1763Z" fill="black"/>
<path opacity="0.1" d="M78.5829 62.4914C78.5824 62.4982 78.5824 62.5051 78.5829 62.5119C78.6071 62.5662 78.6362 62.6181 78.6696 62.6672L79.5411 63.946L81.8089 64.1743L81.834 63.2746C81.1267 63.2198 79.516 63.0257 78.5829 62.4914Z" fill="black"/>
<path d="M78.6719 62.6672C78.6719 62.6672 78.7882 67.7867 77.5083 68.4854C76.2284 69.1842 75.7311 72.824 75.7311 72.824C75.7311 72.824 79.6096 75.3769 80.4743 76.5004C81.3389 77.6238 83.3238 80.3 82.9154 80.9394C82.507 81.5788 83.9056 84.4902 83.9056 84.4902C83.9056 84.4902 81.3458 89.7284 81.9275 91.7082C82.5093 93.6879 82.5664 98.9239 82.5664 98.9239H83.6729C83.6729 98.9239 83.3238 94.6173 83.3238 92.8705C83.3238 91.1236 84.4851 84.8966 84.4851 84.8966C84.4851 84.8966 85.0098 78.7861 84.4851 78.6126C83.9603 78.439 80.8803 75.9934 80.6476 74.886C80.4149 73.7785 82.2766 63.4687 82.2766 63.4687C82.2766 63.4687 79.8925 63.3659 78.6719 62.6672Z" fill="#F86D70"/>
<path opacity="0.1" d="M70.2966 81.524C70.4027 82.2363 70.6619 82.9172 71.0563 83.5197L73.2055 83.1543C73.2055 83.1543 79.6597 81.6975 80.9921 81.5788C81.7993 81.4721 82.5864 81.2474 83.3283 80.912C82.817 79.0983 81.8188 77.4596 80.4423 76.1738L79.6232 75.4134C78.4163 74.2919 77.0175 73.397 75.4938 72.7715C75.5896 72.8514 82.361 78.6377 80.8781 79.7725C79.3951 80.9074 75.4025 78.1444 75.4025 78.1444L70.8624 74.2397L70.6981 74.0982L70.4358 74.5069C70.5693 74.5619 70.6995 74.6244 70.8259 74.6942C72.3732 75.5442 73.5216 76.9726 74.02 78.6674C74.9531 81.8071 70.2966 81.524 70.2966 81.524Z" fill="black"/>
<path d="M68.9004 96.074C68.9004 96.074 73.2032 98.4602 74.2481 97.1221C74.4763 96.8276 74.9577 96.6997 75.5577 96.6654C75.4596 96.364 75.4117 96.1631 75.4117 96.1631C75.4117 96.1631 72.2062 94.9802 69.222 95.2634C69.0258 95.7566 68.9004 96.074 68.9004 96.074Z" fill="#444053"/>
<path d="M70.8807 74.1027L75.5851 78.1535C75.5851 78.1535 79.5617 80.9257 81.0606 79.7817C82.5595 78.6376 75.674 72.7783 75.674 72.7783C77.1945 73.4057 78.5919 74.2979 79.8012 75.4134L80.6203 76.1738C82.774 78.1718 83.2599 78.1718 83.3329 81.1083C83.3512 81.8322 83.1048 82.8712 82.9154 83.0584C82.2173 83.7434 81.7291 88.7191 81.8363 89.3014C81.9435 89.8837 80.5359 94.9095 80.9922 96.307C81.4484 97.7045 75.2885 95.6083 74.2458 96.9487C73.2032 98.2891 68.9004 95.9006 68.9004 95.9006C68.9004 95.9006 71.2845 89.7877 71.8663 89.3813C72.448 88.9748 73.1462 85.8305 71.8663 84.376C70.5864 82.9214 70.4723 81.5239 70.4723 81.5239C70.4723 81.5239 75.1265 81.8116 74.1934 78.6719C73.9309 77.7618 73.4754 76.9191 72.8581 76.2011C72.2407 75.4832 71.476 74.9069 70.616 74.5114L70.8807 74.1027Z" fill="#E8E8F0"/>
<path opacity="0.1" d="M77.1593 84.4055C77.1593 84.4055 75.3546 87.8102 73.0207 88.6939C72.9454 88.7213 72.8724 88.7464 72.7925 88.7692C70.3559 89.5114 77.3418 85.4605 77.1593 84.4055Z" fill="black"/>
<path d="M51.9217 54.2846C51.9217 54.2846 52.7932 56.4972 53.4913 57.2531C54.1894 58.0089 59.3638 65.5763 59.3638 65.5763L59.8019 66.4896L60.1783 67.2683L63.4933 66.9189L63.7214 65.5808L63.5937 65.4256C63.2606 65.026 62.3525 63.9527 61.7434 63.4846C60.9882 62.9046 59.4756 60.9842 59.4756 60.9842C59.4756 60.9842 54.7667 56.0931 54.4176 54.755C54.0685 53.4169 49.3573 45.3928 48.3124 46.7811C47.2675 48.1695 51.9217 54.2846 51.9217 54.2846Z" fill="#FBBEBE"/>
<g opacity="0.1">
<path opacity="0.1" d="M61.5403 90.2787C61.1424 90.2442 60.7419 90.302 60.3699 90.4476C59.5486 90.8472 59.3935 91.9273 58.9372 92.7197C58.4033 93.6467 57.3858 94.2199 56.3386 94.4323C56.1304 94.4727 55.9202 94.5016 55.7089 94.519C56.3759 94.584 57.0486 94.5548 57.7075 94.4323C58.7547 94.2199 59.7722 93.6467 60.306 92.7197C60.7623 91.9273 60.9175 90.8472 61.7388 90.4476C61.9545 90.3505 62.1869 90.2962 62.4233 90.2878L61.5403 90.2787Z" fill="black"/>
<path opacity="0.1" d="M69.6441 72.7623C69.6441 70.947 70.8236 69.3828 71.7955 67.8506C72.7674 66.3184 73.5842 64.3843 72.8153 62.7402C72.1583 61.3359 68.1976 59.4521 65.9116 59.8243C68.1497 60.1143 70.908 61.5894 71.4465 62.7402C72.2153 64.3843 71.3985 66.3184 70.4266 67.8506C69.4547 69.3828 68.2707 70.947 68.2752 72.7623C68.2752 75.1051 68.1178 76.8725 67.4744 79.1354C67.2896 79.7862 69.0714 80.7704 68.7977 81.3869C67.8714 83.442 68.3049 85.8123 68.1566 88.0592C68.1535 88.4982 68.0464 88.9302 67.844 89.3196C67.3877 90.0709 66.4523 90.265 65.542 90.3061H66.3383C67.4014 90.3061 68.6631 90.2239 69.2129 89.3128C69.4153 88.9233 69.5224 88.4913 69.5255 88.0523C69.6738 85.8054 69.2403 83.4329 70.1665 81.3801C70.4449 80.7635 68.6585 79.7817 68.8433 79.1286C69.4867 76.8817 69.6487 75.1051 69.6441 72.7623Z" fill="black"/>
</g>
<path opacity="0.1" d="M59.8018 66.4851L60.1783 67.2637L63.4933 66.9144L63.7214 65.5763L63.5937 65.421C63.24 65.5945 60.5912 66.871 59.8018 66.4851Z" fill="black"/>
<path opacity="0.1" d="M72.0419 75.2376C72.0419 75.2376 71.2274 73.9589 70.762 74.306C70.2966 74.6531 70.1163 73.2579 69.8494 73.4908C69.5825 73.7237 68.8045 74.3722 68.4805 73.4657C68.2273 72.7441 65.4713 68.1795 64.3534 66.3436C64.0659 65.8686 63.8857 65.5763 63.8857 65.5763C63.8857 65.5763 60.7464 67.1473 59.9912 66.6244V67.7296L60.63 67.789L64.0522 74.1827C64.0522 74.1827 65.1291 75.8975 65.0561 76.4958C64.983 77.0941 66.4363 79.7132 66.6691 79.8867C66.9018 80.0603 69.4068 82.9717 69.4068 82.9717C69.4068 82.9717 70.6867 89.258 69.5802 91.0049C68.4737 92.7517 66.5573 94.0305 66.5573 94.0305C66.5573 94.0305 65.9801 95.7179 66.0645 95.8937C66.1489 96.0696 65.3937 96.8254 65.7428 97.0583C66.0918 97.2912 66.5573 98.9193 66.5573 98.9193C66.5573 98.9193 68.1862 96.3002 69.0669 95.8937C69.9475 95.4873 71.0746 90.1303 71.0746 90.1303C71.0746 90.1303 71.3962 86.9746 71.4213 84.9377C71.4464 82.9009 71.3438 75.2376 72.0419 75.2376Z" fill="black"/>
<path d="M71.8663 75.2376C71.8663 75.2376 71.054 73.9589 70.5886 74.306C70.1232 74.653 69.9407 73.2579 69.676 73.4908C69.4114 73.7237 68.6334 74.3722 68.3072 73.4657C68.0516 72.7441 65.2956 68.1795 64.18 66.3436L63.7123 65.5763C63.7123 65.5763 60.573 67.1473 59.8155 66.6244V67.7296L60.4566 67.789L63.8788 74.1827C63.8788 74.1827 64.958 75.8975 64.8827 76.4958C64.8074 77.0941 66.2516 79.7132 66.4957 79.8867C66.7398 80.0603 69.2334 82.9717 69.2334 82.9717C69.2334 82.9717 70.5133 89.258 69.4091 91.0049C68.8258 91.8823 68.1162 92.6686 67.3033 93.3385C66.6205 93.9023 66.1399 94.6735 65.9344 95.5352C65.8948 95.6527 65.8808 95.7773 65.8934 95.9006C65.9778 96.0741 65.2226 96.8322 65.5717 97.0651C65.9207 97.2981 66.3907 98.933 66.3907 98.933C66.3907 98.933 68.0197 96.3139 68.9003 95.9074C69.781 95.501 70.9103 90.144 70.9103 90.144C70.9103 90.144 71.2297 86.9883 71.2571 84.9514C71.2845 82.9146 71.1818 75.2376 71.8663 75.2376Z" fill="#F86D70"/>
<path opacity="0.1" d="M63.8994 101.721C63.8994 101.721 66.3428 102.178 67.3216 102.883C68.3003 103.589 63.6005 101.778 63.6005 101.778L63.8994 101.721Z" fill="black"/>
<path opacity="0.1" d="M69.7741 107.918C69.7741 107.918 72.3225 110.044 71.8663 111.965C71.41 113.885 70.2327 118.717 70.2327 118.717L69.7741 107.918Z" fill="black"/>
<path opacity="0.1" d="M47.4865 103.831C47.4865 103.831 43.8954 104.224 44.1282 104.69C44.3609 105.155 47.4865 104.26 47.4865 104.26V103.831Z" fill="black"/>
<path opacity="0.1" d="M75.0603 121.51C75.0603 121.51 75.2885 121.8 73.9561 121.51C72.6237 121.22 73.607 120.324 73.607 120.324L75.0603 121.51Z" fill="black"/>
<path opacity="0.1" d="M74.604 125.526C74.604 125.526 72.7788 125.816 71.8001 125.526C70.8213 125.236 74.604 125.526 74.604 125.526Z" fill="black"/>
<path opacity="0.1" d="M70.8487 141.241C70.8487 141.241 70.5293 140.891 68.93 141.531C67.3307 142.17 66.6919 142.2 66.2265 141.988C65.7611 141.775 70.8487 141.241 70.8487 141.241Z" fill="black"/>
<path opacity="0.1" d="M72.6237 103.335L70.3559 106.493C70.3559 106.493 71.5765 103.728 72.6237 103.335Z" fill="black"/>
<path opacity="0.1" d="M68.2159 74.306C68.2159 74.306 68.1178 75.3541 66.6554 75.7628C65.193 76.1715 64.9146 76.5026 64.9146 76.5026" fill="black"/>
<path opacity="0.1" d="M64.415 66.7087C64.415 66.7087 62.4849 68.0788 60.4703 67.7888L64.415 66.7087Z" fill="black"/>
<path opacity="0.1" d="M65.8842 96.0445C65.8842 96.0445 66.4478 96.3985 67.8007 94.8503L65.8842 96.0445Z" fill="black"/>
<path opacity="0.1" d="M79.9358 79.6286C79.9906 79.3455 79.7944 79.0829 79.6096 78.8614L79.2308 78.4047C79.1568 78.3112 79.0735 78.2255 78.9822 78.1489C78.754 77.9731 78.462 77.9206 78.2247 77.763" fill="black"/>
<path opacity="0.1" d="M202.432 0.0252172C202.432 0.0252172 183.225 -1.13478 185.483 12.3376C185.483 12.3376 185.027 14.7192 187.19 15.7993C187.19 15.7993 187.224 14.8015 189.161 15.1417C189.851 15.2561 190.551 15.2898 191.249 15.2422C192.191 15.177 193.086 14.8067 193.799 14.1872C193.799 14.1872 199.2 11.954 201.299 3.12158C201.299 3.12158 202.852 1.19435 202.791 0.698838L199.549 2.08489C199.549 2.08489 200.657 4.42544 199.777 6.37094C199.777 6.37094 199.672 2.16938 199.049 2.26072C198.924 2.28127 197.365 3.07135 197.365 3.07135C197.365 3.07135 199.27 7.14732 197.833 10.1112C197.833 10.1112 198.378 5.08764 196.77 3.36591L194.488 4.69945C194.488 4.69945 196.715 8.91014 195.205 12.3467C195.205 12.3467 195.593 7.07653 194.007 5.0237L191.94 6.6381C191.94 6.6381 194.032 10.7894 192.757 13.6392C192.757 13.6392 192.59 7.50353 191.493 7.03999C191.493 7.03999 189.684 8.63841 189.408 9.29148C189.408 9.29148 190.84 12.3056 189.951 13.8949C189.951 13.8949 189.405 9.80754 188.958 9.7847C188.958 9.7847 187.156 12.4929 186.969 14.3516C186.969 14.3516 187.046 11.5909 188.522 9.52896C188.522 9.52896 186.779 9.82809 185.762 10.9584C185.762 10.9584 186.042 9.04486 188.967 8.87817C188.967 8.87817 190.457 6.82306 190.854 6.69747C190.854 6.69747 187.947 6.45543 186.184 7.23637C186.184 7.23637 187.735 5.43015 191.388 6.2522L193.43 4.58299C193.43 4.58299 189.601 4.06008 187.977 4.6378C187.977 4.6378 189.846 3.03938 193.98 4.20394L196.202 2.87497C196.202 2.87497 192.937 2.17167 190.993 2.41828C190.993 2.41828 193.046 1.3108 196.854 2.5119L198.451 1.79718C198.451 1.79718 196.06 1.32679 195.36 1.25143C194.659 1.17608 194.623 0.984269 194.623 0.984269C196.138 0.731457 197.693 0.90458 199.115 1.48435C199.115 1.48435 202.492 0.237579 202.432 0.0252172Z" fill="#6C63FF"/>
<path opacity="0.1" d="M178.742 3.4525C178.742 3.4525 170.072 2.92731 171.087 9.015C171.087 9.015 170.884 10.0928 171.856 10.5815C171.856 10.5815 171.872 10.1248 172.748 10.2823C173.059 10.3347 173.376 10.3501 173.69 10.328C174.116 10.299 174.521 10.1314 174.843 9.85075C174.843 9.85075 177.284 8.84374 178.233 4.85226C178.233 4.85226 178.933 3.97998 178.906 3.7562L177.441 4.38187C177.441 4.38187 177.943 5.44139 177.548 6.32052C177.548 6.32052 177.501 4.42069 177.22 4.46636C177.163 4.46636 176.458 4.83171 176.458 4.83171C176.458 4.83171 177.32 6.67446 176.67 8.01485C176.67 8.01485 176.917 5.74509 176.189 4.96644L175.157 5.56927C175.157 5.56927 176.166 7.47138 175.481 9.02413C175.481 9.02413 175.657 6.64249 174.941 5.71541L174.008 6.45296C174.008 6.45296 174.952 8.32997 174.377 9.61555C174.377 9.61555 174.302 6.84344 173.805 6.63564C173.805 6.63564 172.988 7.35721 172.862 7.65406C172.862 7.65406 173.51 9.02413 173.109 9.73201C173.109 9.73201 172.862 7.88469 172.652 7.87784C172.652 7.87784 171.84 9.10177 171.754 9.93295C171.794 9.15724 172.036 8.40558 172.456 7.75225C171.986 7.84136 171.552 8.06597 171.208 8.39847C171.208 8.39847 171.336 7.53532 172.657 7.45768C172.657 7.45768 173.341 6.5306 173.51 6.47351C173.51 6.47351 172.196 6.36391 171.4 6.71785C171.4 6.71785 172.1 5.90037 173.752 6.26115L174.665 5.50761C174.665 5.50761 172.935 5.27927 172.201 5.53273C172.201 5.53273 173.045 4.81116 174.913 5.33635L175.917 4.7358C175.917 4.7358 174.443 4.41612 173.563 4.53258C173.563 4.53258 174.491 4.03022 176.212 4.57368L176.93 4.25171C176.93 4.25171 175.849 4.03707 175.532 4.0051C175.215 3.97313 175.199 3.88408 175.199 3.88408C175.883 3.77004 176.587 3.84911 177.229 4.11242C177.229 4.11242 178.769 3.54841 178.742 3.4525Z" fill="#6C63FF"/>
<path d="M209.026 148.598C214.092 148.598 218.2 147.903 218.2 147.045C218.2 146.188 214.092 145.493 209.026 145.493C203.959 145.493 199.852 146.188 199.852 147.045C199.852 147.903 203.959 148.598 209.026 148.598Z" fill="#6C63FF"/>
<path d="M212.82 144.506C213.239 144.165 213.544 143.703 213.694 143.184C213.808 142.661 213.584 142.042 213.082 141.839C212.521 141.624 211.921 142.015 211.467 142.408C211.013 142.8 210.491 143.25 209.897 143.166C210.203 142.888 210.432 142.536 210.561 142.143C210.691 141.751 210.717 141.331 210.637 140.926C210.611 140.758 210.54 140.6 210.431 140.469C210.119 140.136 209.555 140.277 209.181 140.54C207.995 141.376 207.664 142.99 207.657 144.44C207.538 143.917 207.639 143.371 207.636 142.842C207.634 142.312 207.486 141.7 207.032 141.419C206.752 141.268 206.437 141.194 206.119 141.204C205.588 141.184 204.992 141.239 204.63 141.629C204.173 142.113 204.294 142.926 204.687 143.456C205.079 143.986 205.679 144.326 206.231 144.693C206.673 144.957 207.049 145.317 207.333 145.746C207.367 145.806 207.395 145.87 207.415 145.936H210.76C211.508 145.554 212.201 145.074 212.82 144.506Z" fill="#6C63FF"/>
</g>
<defs>
<linearGradient id="paint0_linear" x1="184.459" y1="115.298" x2="184.459" y2="23.435" gradientUnits="userSpaceOnUse">
<stop stop-color="#808080" stop-opacity="0.25"/>
<stop offset="0.54" stop-color="#808080" stop-opacity="0.12"/>
<stop offset="1" stop-color="#808080" stop-opacity="0.1"/>
</linearGradient>
<linearGradient id="paint1_linear" x1="9091.97" y1="57219.9" x2="20360.5" y2="57219.9" gradientUnits="userSpaceOnUse">
<stop stop-color="#808080" stop-opacity="0.25"/>
<stop offset="0.54" stop-color="#808080" stop-opacity="0.12"/>
<stop offset="1" stop-color="#808080" stop-opacity="0.1"/>
</linearGradient>
<clipPath id="clip0">
<rect width="261" height="149" fill="white"/>
</clipPath>
</defs>
</svg>
